<?xml version="1.0" standalone="no"?>
<!DOCTYPE svg PUBLIC "-//W3C//DTD SVG 1.1//EN" "http://www.w3.org/Graphics/SVG/1.1/DTD/svg11.dtd">
<svg xmlns="http://www.w3.org/2000/svg">
<metadata>Copyright (C) 2021 by original authors @ fontello.com</metadata>
<defs>
<font id="syrios-entypo-subset" horiz-adv-x="1000" >
<font-face font-family="syrios-entypo-subset" font-weight="400" font-stretch="normal" units-per-em="1000" ascent="850" descent="-150" />
<missing-glyph horiz-adv-x="1000" />
<glyph glyph-name="arrow-medium-down" unicode="&#xe800;" d="M622 435c11 12 22 12 34 0s13-23 0-35l-139-136a22 22 0 0 0-34 0l-139 136c-13 13-13 24 0 35a22 22 0 0 0 35 0l121-111z" horiz-adv-x="1000" />

<glyph glyph-name="arrow-medium-left" unicode="&#xe801;" d="M585 228c12-13 12-24 0-34s-24-13-34 0l-137 138a22 22 0 0 0 0 36l137 138q16 18 34 0c12-11 12-22 0-34l-111-123z" horiz-adv-x="1000" />

<glyph glyph-name="arrow-medium-right" unicode="&#xe802;" d="M415 228l112 121-112 123c-12 13-12 24 0 34s24 13 34 0l137-138a22 22 0 0 0 0-35l-137-138q-16-18-34 0c-12 11-12 21 0 33z" horiz-adv-x="1000" />

<glyph glyph-name="arrow-medium-up" unicode="&#xe803;" d="M379 264a24 24 0 0 0-35 0 22 22 0 0 0 0 34l139 136c12 12 24 12 34 0l139-136a22 22 0 0 0 0-34 24 24 0 0 0-35 0l-121 112z" horiz-adv-x="1000" />

<glyph glyph-name="arrow-thick-down" unicode="&#xe804;" d="M695 400l-167-159a38 38 0 0 0-56 0l-167 159a40 40 0 0 0-11 29 40 40 0 0 0 11 29 35 35 0 0 0 56 0l139-133 139 133a35 35 0 0 0 56 0 40 40 0 0 0 11-29 40 40 0 0 0-11-29z" horiz-adv-x="1000" />

<glyph glyph-name="arrow-thick-left" unicode="&#xe805;" d="M551 546a35 35 0 0 0 27 11 40 40 0 0 0 29-11 37 37 0 0 0 0-57l-133-140 133-138a37 37 0 0 0 0-57 39 39 0 0 0-29-11 38 38 0 0 0-28 11l-161 168a40 40 0 0 0 0 56q148 152 162 168z" horiz-adv-x="1000" />

<glyph glyph-name="arrow-thick-right" unicode="&#xe806;" d="M449 546l161-168a40 40 0 0 0 0-56l-161-168a39 39 0 0 0-29-11 38 38 0 0 0-28 11 38 38 0 0 0 0 57l132 138-132 140a38 38 0 0 0 0 57 40 40 0 0 0 30 11 35 35 0 0 0 27-11z" horiz-adv-x="1000" />

<glyph glyph-name="arrow-thick-up" unicode="&#xe807;" d="M695 301a43 43 0 0 0 0-59 35 35 0 0 0-56 0l-139 134-139-134a35 35 0 0 0-56 0 43 43 0 0 0 0 59l167 159a41 41 0 0 0 56 0z" horiz-adv-x="1000" />

<glyph glyph-name="arrow-thin-down" unicode="&#xe808;" d="M237 506l263-253 264 253c11 12 23 12 35 0s12-22 0-34l-282-279a22 22 0 0 0-34 0l-282 279c-12 13-12 24 0 34a22 22 0 0 0 36 0z" horiz-adv-x="1000" />

<glyph glyph-name="arrow-thin-left" unicode="&#xe809;" d="M656 86q19-18 0-34c-12-12-24-12-34 0l-279 280a22 22 0 0 0 0 36l279 280c10 12 22 12 34 0s13-22 0-34l-254-265z" horiz-adv-x="1000" />

<glyph glyph-name="arrow-thin-right" unicode="&#xe80a;" d="M344 86l254 263-254 265q-19 18 0 34c12 12 24 12 34 0l279-280a22 22 0 0 0 0-36l-279-280c-11-12-22-12-34 0s-12 22 0 34z" horiz-adv-x="1000" />

<glyph glyph-name="arrow-thin-up" unicode="&#xe80b;" d="M763 194l-263 253-264-253c-11-12-23-12-35 0s-12 22 0 34l282 279a22 22 0 0 0 34 0l282-279c12-13 12-24 0-34a22 22 0 0 0-36 0z" horiz-adv-x="1000" />

<glyph glyph-name="attachment" unicode="&#xe80c;" d="M340 0a159 159 0 0 0-121 51 163 163 0 0 0-53 118 196 196 0 0 0 60 135l352 353a121 121 0 0 0 124 37 128 128 0 0 0 56-33 122 122 0 0 0-5-181l-337-336a101 101 0 0 0-62-32 67 67 0 0 0-57 19 59 59 0 0 0-19 52 98 98 0 0 0 33 66l236 237a22 22 0 0 0 36 0 22 22 0 0 0 0-35l-236-236c-21-21-26-38-14-50a22 22 0 0 1 17-4 60 60 0 0 1 32 18l337 338a76 76 0 0 1 25 77 72 72 0 0 1-55 53 81 81 0 0 1-77-26l-351-351a153 153 0 0 1-45-101 117 117 0 0 1 37-83 120 120 0 0 1 83-36 148 148 0 0 1 100 44l353 351a22 22 0 0 0 35 0 21 21 0 0 0 0-35l-352-352a182 182 0 0 0-132-58z" horiz-adv-x="1000" />

<glyph glyph-name="collapse" unicode="&#xe80d;" d="M291 206l-75 71h210v-211l-70 75-104-111-72 71z m529 393l-109-103 74-71h-210v209l71-73 103 109z" horiz-adv-x="1000" />

<glyph glyph-name="expand" unicode="&#xe80e;" d="M393 315l71-71-108-104 86-71h-224v225l72-86z m164 316h225v-225l-71 88-104-108-71 71 108 104z" horiz-adv-x="1000" />

<glyph glyph-name="contact" unicode="&#xe80f;" d="M784 634a70 70 0 0 0 71-71v-426a70 70 0 0 0-20-50 68 68 0 0 0-51-22h-568a67 67 0 0 0-50 22 68 68 0 0 0-22 50v426a67 67 0 0 0 22 51 69 69 0 0 0 50 20z m0-497v426h-568v-426z m-320 352v-64h-177v64z m0-106v-64h-177v64z m0-107v-64h-177v64z m247-14l3-50h-178c0 33 2 50 4 50 40 10 60 26 60 47a94 94 0 0 1-19 40 109 109 0 0 0-19 62q0 79 64 78t63-78a106 106 0 0 0-20-62 93 93 0 0 1-20-40 32 32 0 0 1 15-26 91 91 0 0 1 31-15z" horiz-adv-x="1000" />

<glyph glyph-name="donwload" unicode="&#xe810;" d="M832 241a44 44 0 0 0 20-22 40 40 0 0 0 2-28l-20-110a38 38 0 0 0-16-23 47 47 0 0 0-28-10h-580a47 47 0 0 0-29 10 37 37 0 0 0-15 23l-20 110a44 44 0 0 0 22 51l112 77h70l-120-93h126a9 9 0 0 0 8-6l28-78h214l28 78c4 4 7 6 9 6h126l-121 92h70z m-147 229l-185-173-185 173h118v182h135v-182z" horiz-adv-x="1000" />

<glyph glyph-name="ellipsis" unicode="&#xe811;" d="M251 428a77 77 0 0 0 78-78 77 77 0 0 0-22-55 74 74 0 0 0-56-23 74 74 0 0 0-55 22 77 77 0 0 0-22 56 78 78 0 0 0 77 78z m249 0a76 76 0 0 0 56-22 77 77 0 0 0 0-112 78 78 0 0 0-134 56 78 78 0 0 0 78 78z m249 0a78 78 0 0 0 78-78 77 77 0 0 0-22-55 77 77 0 0 0-111 0 77 77 0 0 0-22 55 77 77 0 0 0 77 78z" horiz-adv-x="1000" />

<glyph glyph-name="compass" unicode="&#xe812;" d="M496 691a328 328 0 0 0 241-97 330 330 0 0 0 104-238 331 331 0 0 0-96-243 332 332 0 0 0-241-104 329 329 0 0 0-242 97 326 326 0 0 0-103 240 324 324 0 0 0 96 243 328 328 0 0 0 241 102z m8-610a260 260 0 0 1 189 81 258 258 0 0 1 77 192 259 259 0 0 1-81 190 262 262 0 0 1-192 76 260 260 0 0 1-190-81 261 261 0 0 1-76-192 259 259 0 0 1 81-190 261 261 0 0 1 192-76z m-166 110c2 12 5 28 8 47a689 689 0 0 0 30 91 263 263 0 0 0 54 93 255 255 0 0 0 89 54 504 504 0 0 0 101 30l42 8c-2-13-5-28-8-47a679 679 0 0 0-30-91 260 260 0 0 0-54-94 254 254 0 0 0-89-53 519 519 0 0 0-101-30z m129 196a44 44 0 0 1-16-34 51 51 0 0 1 15-36 48 48 0 0 1 36-15 44 44 0 0 1 34 15q36 37 62 132c-65-17-109-37-131-62z" horiz-adv-x="1000" />

<glyph glyph-name="focus" unicode="&#xe813;" d="M500 656a294 294 0 0 0 216-89 295 295 0 0 0 89-217 295 295 0 0 0-89-216 294 294 0 0 0-216-89 295 295 0 0 0-216 89 295 295 0 0 0-89 216 295 295 0 0 0 89 217 295 295 0 0 0 216 89z m26-553a244 244 0 0 1 150 72 239 239 0 0 1 71 151h-136v50h136a238 238 0 0 1-71 150 244 244 0 0 1-150 73v-138h-50v138a250 250 0 0 1-152-73 236 236 0 0 1-71-150h137v-50h-137a238 238 0 0 1 71-151 249 249 0 0 1 152-72v137h50z" horiz-adv-x="1000" />

<glyph glyph-name="globe" unicode="&#xe814;" d="M500 691a328 328 0 0 0 242-100 330 330 0 0 0 99-242 329 329 0 0 0-99-241 329 329 0 0 0-241-99 330 330 0 0 0-242 99 327 327 0 0 0-100 241 329 329 0 0 0 100 242 328 328 0 0 0 241 100z m-40-54a277 277 0 0 1-141-59 291 291 0 0 1-91-124c3 0 8 0 16-2l20-2a121 121 0 0 0 18-3 74 74 0 0 0 18-5 15 15 0 0 0 8-10c2-5-1-16-10-32a93 93 0 0 1-13-44 50 50 0 0 1 27-39c18-13 27-24 27-33a257 257 0 0 1 6-48c4-19 6-30 6-32 0-5 8-18 25-38s30-30 37-30 8 5 8 16a304 304 0 0 1-1 38c-2 15-2 25-2 28a178 178 0 0 0 9 54 89 89 0 0 0 43 50 104 104 0 0 1 39 33 64 64 0 0 1 6 43 113 113 0 0 1-12 30 59 59 0 0 1-24 20 185 185 0 0 1-29 12c-8 2-17 4-27 6l-15 3a95 95 0 0 1-30 5 67 67 0 0 1-26-2c-5-2-11 0-19 8a29 29 0 0 0-12 21 35 35 0 0 0 11 19c7 8 15 17 24 26s16 17 20 22a54 54 0 0 0 12 15c5 4 10 7 16 12s13 9 19 15a124 124 0 0 0 18 12 58 58 0 0 1 19 15z m-51-565a317 317 0 0 1 91-14 275 275 0 0 1 161 48c-13 21-41 29-84 25a198 198 0 0 1-46-13l-34-12c-35-7-53-11-54-11a39 39 0 0 1-18-10c-7-5-12-9-16-13z m383 278a283 283 0 0 1-56 170 288 288 0 0 1-144 106c-8-12-12-19-11-22a57 57 0 0 1 13-37 19 19 0 0 1 22-5l22 9 14 1a22 22 0 0 0 0-33 336 336 0 0 1-32-40 50 50 0 0 1 0-55 74 74 0 0 1 68-44 37 37 0 0 0 31-26 141 141 0 0 0 12-47 200 200 0 0 0-10-99 41 41 0 0 1 10-54 286 286 0 0 1 61 176z" horiz-adv-x="1000" />

<glyph glyph-name="help" unicode="&#xe815;" d="M496 677a316 316 0 0 0 232-94 314 314 0 0 0 99-229 314 314 0 0 0-93-232 316 316 0 0 0-229-99 315 315 0 0 0-233 94 315 315 0 0 0-99 228 313 313 0 0 0 94 233 316 316 0 0 0 229 99z m117-294a89 89 0 0 1 19 56 95 95 0 0 1-38 82 161 161 0 0 1-96 27 133 133 0 0 1-74-18c-32-20-49-55-51-104v-3h78v3a78 78 0 0 0 11 38 44 44 0 0 0 39 17c19 0 31-4 37-14a49 49 0 0 0 11-31 50 50 0 0 0-11-28 50 50 0 0 0-14-15l-16-10c-5-4-10-7-14-11l-15-12a61 61 0 0 1-12-12 118 118 0 0 1-13-56v-5h77v3a89 89 0 0 0 2 20 50 50 0 0 0 20 25l20 13a178 178 0 0 1 40 35z m-118-232a46 46 0 0 1 35 13 44 44 0 0 1 13 34 44 44 0 0 1-12 34 48 48 0 0 1-35 14h-1a47 47 0 0 1-33-13 49 49 0 0 1-15-33 47 47 0 0 1 13-34 49 49 0 0 1 34-15z" horiz-adv-x="1000" />

<glyph glyph-name="hourglass" unicode="&#xe816;" d="M699 543a105 105 0 0 0-34-68c-23-25-46-47-69-69s-35-41-35-55 12-32 35-54 46-45 69-69a104 104 0 0 0 34-69v-84c0-16-20-33-61-52a332 332 0 0 0-138-27 330 330 0 0 0-138 27q-61 27-61 51v84a105 105 0 0 0 34 70c22 24 46 47 69 69s35 39 35 54-12 32-35 55-46 44-69 69a106 106 0 0 0-34 68v85c0 15 21 32 62 50a332 332 0 0 0 137 27 332 332 0 0 0 137-27c41-19 62-36 62-51z m-181-193a89 89 0 0 0 3 24 74 74 0 0 0 12 23c7 9 12 14 15 18s10 10 22 22l20 20q66 65 66 87l1 35a327 327 0 0 0-158-38 327 327 0 0 0-157 38l2-35q0-23 64-87l32-31 14-13 12-15c8-10 11-15 8-14s0-5 6-17 8-17 2-17a132 132 0 0 0 0-13 32 32 0 0 0-4-13c-2-4-4-8-6-12a51 51 0 0 0-8-12l-8-10-11-12q-10-11-11-10s-5-4-13-12a96 96 0 0 0-12-11c-43-43-64-72-64-87v-47c4 2 19 8 47 17a243 243 0 0 1 65 30 49 49 0 0 1 25 42c0 14 6 22 18 22s18-7 18-22a50 50 0 0 1 24-42 228 228 0 0 1 67-30 417 417 0 0 0 47-17v47q0 22-65 87l-31 29-13 13a138 138 0 0 0-12 16l-9 14a48 48 0 0 0-6 16 79 79 0 0 0-2 17z m-162 273l-13-10a8 8 0 0 1 3-10 307 307 0 0 1 153-37 314 314 0 0 1 156 36c6 4 3 12-12 22a286 286 0 0 1-143 38 260 260 0 0 1-144-39z" horiz-adv-x="1000" />

<glyph glyph-name="info" unicode="&#xe817;" d="M496 677a316 316 0 0 0 232-94 314 314 0 0 0 99-229 314 314 0 0 0-93-232 316 316 0 0 0-229-99 315 315 0 0 0-233 94 315 315 0 0 0-99 228 313 313 0 0 0 94 233 316 316 0 0 0 229 99z m-48-531a150 150 0 0 1 60 19 277 277 0 0 1 75 55l-13 17a103 103 0 0 0-51-25c-7 0-7 9-3 27l30 113c12 46 7 69-15 69a163 163 0 0 1-64-21 410 410 0 0 1-81-53l11-19a121 121 0 0 0 53 24c5 0 5-8 0-24l-26-108c-12-49-4-74 24-74z m85 423a61 61 0 0 1-46-17 51 51 0 0 1-16-36 37 37 0 0 1 11-31 49 49 0 0 1 34-12 60 60 0 0 1 45 16 51 51 0 0 1 16 38 37 37 0 0 1-44 42z" horiz-adv-x="1000" />

<glyph glyph-name="link-external" unicode="&#xe818;" d="M678 144v39l71 59v-134a37 37 0 0 0-36-36h-533a36 36 0 0 0-35 36v391a34 34 0 0 0 11 26 35 35 0 0 0 25 10h205a522 522 0 0 1-42-35 354 354 0 0 1-29-28l-7-8h-92v-320z m-59 247q-118 0-172-29t-114-129c0 4 0 9 0 16s3 20 7 40a359 359 0 0 0 16 56 326 326 0 0 0 31 59 248 248 0 0 0 50 56 243 243 0 0 0 76 40 325 325 0 0 0 106 17v111l236-178-236-185z" horiz-adv-x="1000" />

<glyph glyph-name="link" unicode="&#xe819;" d="M425 183a34 34 0 0 0 24 10 39 39 0 0 0 25-10 33 33 0 0 0 0-49l-30-29a133 133 0 0 0-189 0 133 133 0 0 0 0 189l105 105a179 179 0 0 0 103 55 106 106 0 0 0 91-30 36 36 0 0 0 11-26 36 36 0 0 0-11-26 33 33 0 0 0-50 0q-35 34-94-24l-105-104a62 62 0 0 1-18-45 60 60 0 0 1 18-45 63 63 0 0 1 45-17 61 61 0 0 1 44 18z m319 408a133 133 0 0 0 0-189l-112-112a156 156 0 0 0-106-51 111 111 0 0 0-80 35 33 33 0 0 0-10 24 36 36 0 0 0 10 25 33 33 0 0 0 25 11 34 34 0 0 0 25-10c23-22 52-17 86 17l113 111a64 64 0 0 1 20 46 55 55 0 0 1-20 44 69 69 0 0 1-40 22 49 49 0 0 1-43-15l-34-36a38 38 0 0 0-26-10 33 33 0 0 0-24 10 32 32 0 0 0 0 50l36 35a116 116 0 0 0 90 37 133 133 0 0 0 90-44z" horiz-adv-x="1000" />

<glyph glyph-name="location" unicode="&#xe81a;" d="M500 634a171 171 0 0 0 126-51 172 172 0 0 0 52-126 424 424 0 0 0-45-172 848 848 0 0 0-89-159l-44-60c-5 6-11 14-19 25s-22 32-43 64a1044 1044 0 0 0-54 92 670 670 0 0 0-42 105 345 345 0 0 0-20 106 171 171 0 0 0 52 125 171 171 0 0 0 126 51z m0-276a97 97 0 0 1 97 97 91 91 0 0 1-29 67 94 94 0 0 1-68 28 95 95 0 0 1-95-96 95 95 0 0 1 27-68 91 91 0 0 1 68-28z" horiz-adv-x="1000" />

<glyph glyph-name="map" unicode="&#xe81b;" d="M844 527a23 23 0 0 0 12-22v-414a23 23 0 0 0-12-22 18 18 0 0 0-11-5 26 26 0 0 0-13 5l-153 97-154-96a22 22 0 0 0-24 0l-156 96-153-96a22 22 0 0 0-24 0 22 22 0 0 0-12 22v414a23 23 0 0 0 12 22l166 103a22 22 0 0 0 24 0l154-97 156 97a20 20 0 0 0 22 0z m-533-319v359l-119-74v-359z m167-74v359l-120 74v-359z m166 74v359l-120-74v-359z m165-74v359l-120 74v-359z" horiz-adv-x="1000" />

<glyph glyph-name="media-forward" unicode="&#xe81c;" d="M480 366a22 22 0 0 0 10-17 18 18 0 0 0-10-15l-256-177a24 24 0 0 0-25-4c-8 4-12 12-12 26v342c0 14 4 23 12 26a24 24 0 0 0 25-4z m323 0a21 21 0 0 0 10-17 17 17 0 0 0-10-15l-265-177a26 26 0 0 0-26-4c-7 4-11 12-11 26v342c0 14 4 23 11 26a26 26 0 0 0 26-4z" horiz-adv-x="1000" />

<glyph glyph-name="media-next" unicode="&#xe81d;" d="M580 366a20 20 0 0 0 10-16 20 20 0 0 0-10-16l-258-162c-10-7-19-8-25-4a27 27 0 0 0-10 25v314a27 27 0 0 0 10 25c6 4 15 3 25-4z m81 191q52 0 52-41v-333q0-41-53-41t-53 41v333q0 41 54 41z" horiz-adv-x="1000" />

<glyph glyph-name="media-pause" unicode="&#xe81e;" d="M376 599c42 0 64-15 64-45v-406c0-31-23-47-64-47s-65 16-65 47v405c0 30 22 46 65 46z m248 0c43 0 64-15 64-45v-406c1-31-21-47-64-47s-64 16-64 47v405c0 30 22 46 64 46z" horiz-adv-x="1000" />

<glyph glyph-name="media-play" unicode="&#xe81f;" d="M668 368a21 21 0 0 0 0-36l-304-189a27 27 0 0 0-30-4 30 30 0 0 0-12 28v366a30 30 0 0 0 12 28 27 27 0 0 0 30-4z" horiz-adv-x="1000" />

<glyph glyph-name="media-previous" unicode="&#xe820;" d="M287 516q0 41 53 41t53-41v-333q0-41-53-41t-53 41z m123-167a20 20 0 0 0 10 17l259 162a21 21 0 0 0 24 4 27 27 0 0 0 10-25v-314a27 27 0 0 0-10-25 21 21 0 0 0-24 4l-259 162a20 20 0 0 0-10 15z" horiz-adv-x="1000" />

<glyph glyph-name="media-record" unicode="&#xe821;" d="M500 599a240 240 0 0 0 176-73 239 239 0 0 0 73-175 241 241 0 0 0-73-177 238 238 0 0 0-176-73 238 238 0 0 0-176 73 241 241 0 0 0-73 177 239 239 0 0 0 73 175 240 240 0 0 0 176 73z" horiz-adv-x="1000" />

<glyph glyph-name="media-rewind" unicode="&#xe822;" d="M187 349a21 21 0 0 0 10 17l267 177a24 24 0 0 0 25 4c7-4 11-12 11-26v-342c0-14-4-23-11-26a24 24 0 0 0-26 4l-266 177a17 17 0 0 0-10 15z m323 0a21 21 0 0 0 10 17l256 177a24 24 0 0 0 25 4c8-4 12-12 12-26v-342c0-14-4-23-12-26a24 24 0 0 0-25 4l-256 177a18 18 0 0 0-9 15z" horiz-adv-x="1000" />

<glyph glyph-name="media-stop" unicode="&#xe823;" d="M661 563c35 0 52-15 52-44v-336c0-31-17-47-52-47h-320c-36 0-54 16-54 47v334a42 42 0 0 0 13 35 67 67 0 0 0 41 10z" horiz-adv-x="1000" />

<glyph glyph-name="minus" unicode="&#xe824;" d="M685 386c14 0 22-12 22-36s-7-36-22-36h-149v-149c0-14-12-22-36-22s-36 7-36 22v149h-149c-14 0-22 12-22 36s7 36 22 36h149v149c0 14 12 22 36 22s36-7 36-22v-149z" horiz-adv-x="1000" />

<glyph glyph-name="plus" unicode="&#xe825;" d="M685 386c14 0 22-12 22-36s-7-36-22-36h-370c-14 0-22 12-22 36s7 36 22 36z" horiz-adv-x="1000" />

<glyph glyph-name="reference" unicode="&#xe826;" d="M838 444a28 28 0 0 0 17-22 28 28 0 0 0-17-24l-55-31-219 72c-10 17-32 26-64 26a92 92 0 0 1-48-11 33 33 0 0 1-19-29 33 33 0 0 1 19-28 92 92 0 0 1 48-14 81 81 0 0 1 26 3l207-47-190-108a85 85 0 0 0-85 0l-296 166a28 28 0 0 0-17 23 28 28 0 0 0 17 23l295 166a86 86 0 0 0 86 0z m-575-175l237-119 196 96-10-58a44 44 0 0 0-8-16 64 64 0 0 0-17-17 196 196 0 0 0-32-15c-19-9-37-19-57-30s-33-18-44-24a69 69 0 0 0-28-8 63 63 0 0 0-28 10c-12 6-27 15-45 26a388 388 0 0 1-57 28 201 201 0 0 0-73 50 180 180 0 0 0-34 77z m484-139a604 604 0 0 1 10 129 166 166 0 0 1-14 64l-10 16 50 27a68 68 0 0 0 9-20c2-10 6-34 12-72a502 502 0 0 0-5-140c-2-12-7-19-16-22a34 34 0 0 0-25 5q-12 5-11 13z" horiz-adv-x="1000" />

<glyph glyph-name="search" unicode="&#xe827;" d="M768 157c15-17 16-31 5-45l-33-32a31 31 0 0 0-48 0l-135 135a222 222 0 0 0-111-30 217 217 0 0 0-159 67 217 217 0 0 0-67 158 215 215 0 0 0 64 156 210 210 0 0 0 156 64 219 219 0 0 0 159-66 219 219 0 0 0 35-274z m-482 254a152 152 0 0 1 49-111 152 152 0 0 1 111-48 153 153 0 0 1 152 154 151 151 0 0 1-48 111 154 154 0 0 1-112 47 147 147 0 0 1-107-44 146 146 0 0 1-45-109z" horiz-adv-x="1000" />

<glyph glyph-name="settings" unicode="&#xe828;" d="M742 350q0-51 57-87a336 336 0 0 0-25-57 100 100 0 0 1-96-32 98 98 0 0 1-24-96 583 583 0 0 0-60-26 104 104 0 0 1-188 0 583 583 0 0 0-60 26 97 97 0 0 1-120 120 467 467 0 0 0-25 59 109 109 0 0 1 59 94c0 34-20 63-59 89a476 476 0 0 0 25 58 97 97 0 0 1 96 30 97 97 0 0 1 24 96 321 321 0 0 0 60 25 106 106 0 0 1 188 0 321 321 0 0 0 60-25 98 98 0 0 1 24-96 100 100 0 0 1 96-32 342 342 0 0 0 25-58 103 103 0 0 1-57-88z m-242-129a128 128 0 0 1 129 129 127 127 0 0 1-37 92 129 129 0 0 1-184 0 127 127 0 0 1-37-92 128 128 0 0 1 129-129z" horiz-adv-x="1000" />

<glyph glyph-name="tools" unicode="&#xe829;" d="M255 461a31 31 0 0 1-8-16 78 78 0 0 1-2-18c0-5 0-8-2-8l-12-10-13-12a12 12 0 0 0-20 3l-50 54a11 11 0 0 0 2 16 117 117 0 0 0 12 10c8 6 12 10 14 12a29 29 0 0 0 20 4 36 36 0 0 1 26 10 46 46 0 0 1 14 27 48 48 0 0 0 7 22s3 2 6 5 10 9 19 16 18 14 29 22c63 43 107 66 132 68 58 0 93 0 105-1 6 0 4-2-6-6a668 668 0 0 1-108-54c-38-26-46-53-25-81a325 325 0 0 1 27-34c4-4 3-7-2-10l-54-50c-6-3-10-4-12-2a158 158 0 0 1-51 42 51 51 0 0 1-48-9z m-13-361l180 176 54-61-175-172c-9-10-18-11-27-3l-32 32c-11 9-11 18 0 28z m216 342l291-338c9-11 9-20-1-27l-34-30a19 19 0 0 0-27 3l-294 335c-4 4-4 9 0 15l51 44a9 9 0 0 0 14-2z m394 144a194 194 0 0 0-12-118 89 89 0 0 0-109-45 74 74 0 0 1-71-22l-58-55-49 55 49 49a80 80 0 0 1 22 38 178 178 0 0 1 4 46 146 146 0 0 0 4 41c5 27 38 53 99 80 6 3 10 2 13-2s3-8 1-11a314 314 0 0 1-32-57 26 26 0 0 1-9-24c0-12 10-24 28-38 28-19 51-13 69 16a264 264 0 0 0 18 29c9 14 15 22 16 22a9 9 0 0 0 9 7c4 0 7-4 8-11z" horiz-adv-x="1000" />

<glyph glyph-name="view" unicode="&#xe82a;" d="M500 549a446 446 0 0 0 126-18 376 376 0 0 0 100-44 545 545 0 0 0 70-55 272 272 0 0 0 45-50 71 71 0 0 0 14-32 68 68 0 0 0-14-32 312 312 0 0 0-45-50 494 494 0 0 0-70-55 376 376 0 0 0-100-45 454 454 0 0 0-252 0 373 373 0 0 0-100 45 494 494 0 0 0-70 55 312 312 0 0 0-45 50 68 68 0 0 0-14 32 71 71 0 0 0 14 32 272 272 0 0 0 45 50 545 545 0 0 0 70 55 373 373 0 0 0 100 44 446 446 0 0 0 126 18z m0-351a156 156 0 0 1 111 44 149 149 0 0 1 0 216 154 154 0 0 1-111 45 154 154 0 0 1-111-45 149 149 0 0 1 0-216 156 156 0 0 1 111-44z m0 152c4-4 12-4 26-1s26 5 36 7 16 0 18-6a71 71 0 0 0-23-53 80 80 0 0 0-56-23 77 77 0 0 0-55 23 76 76 0 0 0-2 109 78 78 0 0 0 56 22c7 0 9-6 7-17a244 244 0 0 0-8-33 30 30 0 0 1 1-28z" horiz-adv-x="1000" />

<glyph glyph-name="bullet-round" unicode="&#xe82b;" d="M500 474a123 123 0 0 0 124-124 120 120 0 0 0-36-87 118 118 0 0 0-88-37 118 118 0 0 0-88 37 120 120 0 0 0-36 87 123 123 0 0 0 124 124" horiz-adv-x="1000" />

<glyph glyph-name="warning" unicode="&#xe82c;" d="M838 83a22 22 0 0 0 0-22 24 24 0 0 0-22-12h-633a22 22 0 0 0-20 11 19 19 0 0 0-1 24l317 556a24 24 0 0 0 42 0z m-298 160v213h-78v-213z m0-124v71h-78v-71z" horiz-adv-x="1000" />

<glyph glyph-name="check-medium" unicode="&#xe82e;" d="M690 494l-14 9a17 17 0 0 1-22-5l-152-227-89 109a17 17 0 0 1-22 4l-13-11a17 17 0 0 1-4-23l113-146a24 24 0 0 1 20-10 19 19 0 0 1 17 10l174 267a17 17 0 0 1-8 23z" horiz-adv-x="1000" />

<glyph glyph-name="check-thin" unicode="&#xe82f;" d="M778 628l-14 9a16 16 0 0 1-23-5l-314-495-170 218a17 17 0 0 1-24 3l-13-10a17 17 0 0 1-3-24l194-254a24 24 0 0 1 20-10 18 18 0 0 1 17 10l336 536a16 16 0 0 1-6 22z" horiz-adv-x="1000" />

<glyph glyph-name="circle-medium" unicode="&#xe830;" d="M500 583a222 222 0 0 0 165-68 222 222 0 0 0 68-164 225 225 0 0 0-68-166 222 222 0 0 0-165-68 222 222 0 0 0-165 68 226 226 0 0 0-68 166 222 222 0 0 0 68 164 222 222 0 0 0 165 68m0 50a273 273 0 0 1-200-82 272 272 0 0 1-82-200 276 276 0 0 1 82-200 272 272 0 0 1 200-84 271 271 0 0 1 200 84 275 275 0 0 1 83 200 272 272 0 0 1-83 200 272 272 0 0 1-200 82z" horiz-adv-x="1000" />

<glyph glyph-name="circle-thick" unicode="&#xe831;" d="M500 549a190 190 0 0 0 141-58 189 189 0 0 0 58-140 192 192 0 0 0-58-141 189 189 0 0 0-141-59 190 190 0 0 0-141 59 192 192 0 0 0-58 141 189 189 0 0 0 58 140 190 190 0 0 0 141 58m0 50a240 240 0 0 1-176-73 239 239 0 0 1-73-175 241 241 0 0 1 73-177 238 238 0 0 1 176-73 238 238 0 0 1 176 73 241 241 0 0 1 73 177 239 239 0 0 1-73 175 240 240 0 0 1-176 73z" horiz-adv-x="1000" />

<glyph glyph-name="circle-thin" unicode="&#xe832;" d="M500 633a272 272 0 0 0 200-82 272 272 0 0 0 83-200 275 275 0 0 0-83-200 271 271 0 0 0-200-84 272 272 0 0 0-200 84 276 276 0 0 0-82 200 272 272 0 0 0 82 200 273 273 0 0 0 200 82m0 50a323 323 0 0 1-236-97 322 322 0 0 1-97-235 325 325 0 0 1 97-236 322 322 0 0 1 236-98 322 322 0 0 1 236 98 325 325 0 0 1 97 236 322 322 0 0 1-97 235 322 322 0 0 1-236 97z" horiz-adv-x="1000" />

<glyph glyph-name="coin-rotate" unicode="&#xe833;" d="M889 350c0-59-43-111-113-150a591 591 0 0 0-276-61 591 591 0 0 0-276 61c-70 38-113 91-113 150 0 50 30 96 83 132a492 492 0 0 0 216 73l3 0 4 0v-66l-4 0a467 467 0 0 1-169-53c-42-25-66-55-66-86 0-38 37-75 96-101a570 570 0 0 1 226-43 570 570 0 0 1 226 43c59 26 96 63 96 101a53 53 0 0 1-2 14s0 2 0 2a64 64 0 0 1-5 14 12 12 0 0 0 0 2 118 118 0 0 1-9 14l-2 2a122 122 0 0 1-13 13h0a173 173 0 0 1-17 14l0 0c-6 4-12 8-20 12l-1 0c-7 4-15 8-23 11l-1 0c-9 4-17 8-26 11h0v-80l-117 117 117 117v-84h0a394 394 0 0 0 110-52l1-2 12-8 3-3 9-8 3-3 2-1c2-3 5-5 7-8l5-5 6-7a55 55 0 0 0 4-6 80 80 0 0 0 5-7l4-7c1-2 2-4 3-7a67 67 0 0 0 4-7c1-2 2-4 3-7s1-5 2-8l2-6c0-3 0-6 2-10s0-3 0-5-1-7-1-12z m-389-94c11 0 22 0 33 1v449a22 22 0 0 1-22 22h-22a22 22 0 0 1-22-22v-449c11-1 22-1 33-1z m0-167c-11 0-22 0-33 0v-95a22 22 0 0 1 22-22h22a22 22 0 0 1 22 22v96c-11-1-22-1-33-1z" horiz-adv-x="1000" />

<glyph glyph-name="coin-scale" unicode="&#xe834;" d="M478 161a167 167 0 1 0-167 167 167 167 0 0 0 167-167z m-167 111a111 111 0 1 1 111-111 111 111 0 0 1-111 111m175 17l131 131 41-42 18 149-146-21 40-39-131-131a215 215 0 0 0 47-47z m280 327a344 344 0 0 1-588-244 300 300 0 0 1 2-33l0-7a216 216 0 0 0 64 35h0a33 33 0 0 0 0 5 278 278 0 1 0 278-278h-5a216 216 0 0 0-33-64l6 0a300 300 0 0 1 32-2 344 344 0 0 1 245 588z" horiz-adv-x="1000" />

<glyph glyph-name="sqaure-medium" unicode="&#xe835;" d="M695 558a50 50 0 0 0 13-1s0-2 0-4v-405a28 28 0 0 0 0-5 47 47 0 0 0-13-1h-388a52 52 0 0 0-15 1 27 27 0 0 0 0 5v405c0 2 0 3 0 4a106 106 0 0 0 15 1h388m0 50h-388a81 81 0 0 1-50-12 52 52 0 0 1-15-43v-405q0-56 65-56h388c42 0 63 19 63 56v405c0 37-21 55-63 55z" horiz-adv-x="1000" />

<glyph glyph-name="sqaure-thick" unicode="&#xe836;" d="M661 513h2v-326h-326v326h324m0 50h-320a67 67 0 0 1-41-10 42 42 0 0 1-13-36v-334c0-31 18-47 54-47h320c35 0 52 16 52 47v334c0 30-17 44-52 44z" horiz-adv-x="1000" />

<glyph glyph-name="sqaure-thin" unicode="&#xe837;" d="M695 608c42 0 63-18 63-55v-405c0-37-21-56-63-56h-388q-65 0-65 56v405a52 52 0 0 0 15 43 81 81 0 0 0 50 12h388m0 50h-388a126 126 0 0 1-81-22 97 97 0 0 1-34-82v-406c0-51 30-106 115-106h388c70 0 113 41 113 106v405c0 51-30 105-113 105z" horiz-adv-x="1000" />

<glyph glyph-name="x-medium" unicode="&#xe838;" d="M540 350l102 106a17 17 0 0 1 0 24l-12 12a17 17 0 0 1-24 0l-106-102-106 102a17 17 0 0 1-24 0l-12-12a17 17 0 0 1 0-24l102-106-102-106a17 17 0 0 1 0-24l12-12a17 17 0 0 1 24 0l106 102 106-102a17 17 0 0 1 24 0l12 12a17 17 0 0 1 0 24z" horiz-adv-x="1000" />

<glyph glyph-name="x-thin" unicode="&#xe839;" d="M542 350l252 258a17 17 0 0 1 0 24l-12 12a17 17 0 0 1-24 0l-258-252-258 252a17 17 0 0 1-24 0l-12-12a17 17 0 0 1 0-24l252-258-252-258a17 17 0 0 1 0-24l12-12a17 17 0 0 1 24 0l258 252 258-252a17 17 0 0 1 24 0l12 12a17 17 0 0 1 0 24z" horiz-adv-x="1000" />

<glyph glyph-name="bullet-square" unicode="&#xe83a;" d="M611 439a22 22 0 0 1-18 22l-4 0h-178a22 22 0 0 1-22-22v-178a22 22 0 0 1 22-22h178l4 0a22 22 0 0 1 18 22z" horiz-adv-x="1000" />
</font>
</defs>
</svg>
