<?xml version="1.0" standalone="no"?>
<!DOCTYPE svg PUBLIC "-//W3C//DTD SVG 1.1//EN" "http://www.w3.org/Graphics/SVG/1.1/DTD/svg11.dtd">
<svg xmlns="http://www.w3.org/2000/svg">
<metadata>Copyright (C) 2022 by original authors @ fontello.com</metadata>
<defs>
<font id="syrios" horiz-adv-x="1000" >
<font-face font-family="syrios" font-weight="400" font-stretch="normal" units-per-em="1000" ascent="850" descent="-150" />
<missing-glyph horiz-adv-x="1000" />
<glyph glyph-name="entypo-arrow-medium-down" unicode="&#xe800;" d="M508 274l115 123c6 6 6 15 1 20l-10 9c-5 6-14 5-19 0 0 0-62-60-95-93-33 33-95 93-95 93-6 5-15 6-20 0l-9-9c-6-5-5-14 0-20l116-123c4-5 11-5 16 0z" horiz-adv-x="1000" />

<glyph glyph-name="entypo-arrow-medium-left" unicode="&#xe801;" d="M424 342l123-115c6-6 15-6 20-1l9 10c6 5 5 14 0 19 0 0-60 62-93 95 33 33 93 95 93 95 5 6 6 15 0 20l-9 9c-5 6-14 5-20 0l-123-116c-5-4-5-11 0-16z" horiz-adv-x="1000" />

<glyph glyph-name="entypo-arrow-medium-right" unicode="&#xe802;" d="M576 358l-123 115c-6 6-15 6-20 1l-9-10c-6-5-5-14 0-19 0 0 60-62 93-95-33-33-93-95-93-95-5-6-6-15 0-20l9-9c5-6 14-5 20 0l123 116c5 4 5 11 0 16z" horiz-adv-x="1000" />

<glyph glyph-name="entypo-arrow-medium-up" unicode="&#xe803;" d="M492 426l-115-123c-6-6-6-15-1-20l10-9c5-6 14-5 19 0 0 0 62 60 95 93 33-33 95-93 95-93 6-5 15-6 20 0l9 9c6 5 5 14 0 20l-116 123c-4 5-11 5-16 0z" horiz-adv-x="1000" />

<glyph glyph-name="entypo-arrow-thick-down" unicode="&#xe804;" d="M487 216l-204 214c-7 8-7 20 0 27l25 26c7 8 18 8 25 0l167-167 167 167c7 7 18 7 25 0l25-26c7-7 7-19 0-27l-205-214c-6-7-18-7-25 0z" horiz-adv-x="1000" />

<glyph glyph-name="entypo-arrow-thick-left" unicode="&#xe805;" d="M366 363l214 204c8 7 20 7 27 0l26-25c8-7 8-18 0-25l-167-167 167-167c7-7 7-18 0-25l-26-25c-7-7-19-7-27 0l-214 205c-7 6-7 18 0 25z" horiz-adv-x="1000" />

<glyph glyph-name="entypo-arrow-thick-right" unicode="&#xe806;" d="M634 363l-214 204c-8 7-20 7-27 0l-26-25c-8-7-8-18 0-25l167-167-167-167c-7-7-7-18 0-25l26-25c7-7 19-7 27 0l214 205c7 6 7 18 0 25z" horiz-adv-x="1000" />

<glyph glyph-name="entypo-arrow-thick-up" unicode="&#xe807;" d="M513 484l204-214c7-8 7-20 0-27l-25-26c-7-8-18-8-25 0l-167 167-167-167c-7-7-18-7-25 0l-25 26c-7 7-7 19 0 27l205 214c6 7 18 7 25 0z" horiz-adv-x="1000" />

<glyph glyph-name="entypo-arrow-thin-down" unicode="&#xe808;" d="M492 191l-288 286c-4 5-4 12 0 16l16 16c4 4 11 4 16 0l264-258 265 258c4 4 11 4 16 0l15-16c4-4 4-11 0-16l-288-286c-4-4-11-4-16 0z" horiz-adv-x="1000" />

<glyph glyph-name="entypo-arrow-thin-left" unicode="&#xe809;" d="M341 358l286 288c5 4 12 4 16 0l16-16c4-4 4-11 0-16l-258-264 258-265c4-4 4-11 0-16l-16-15c-4-4-11-4-16 0l-286 288c-4 4-4 11 0 16z" horiz-adv-x="1000" />

<glyph glyph-name="entypo-arrow-thin-right" unicode="&#xe80a;" d="M659 358l-286 288c-5 4-12 4-16 0l-16-16c-4-4-4-11 0-16l258-264-258-265c-4-4-4-11 0-16l16-15c4-4 11-4 16 0l286 288c4 4 4 11 0 16z" horiz-adv-x="1000" />

<glyph glyph-name="entypo-arrow-thin-up" unicode="&#xe80b;" d="M508 509l288-286c4-5 4-12 0-16l-16-16c-4-4-11-4-16 0l-264 258-265-258c-4-4-11-4-16 0l-15 16c-4 4-4 11 0 16l288 286c4 4 11 4 16 0z" horiz-adv-x="1000" />

<glyph glyph-name="entypo-attachment" unicode="&#xe80c;" d="M368 28c-48 0-89 17-121 51-34 33-51 73-52 118-1 46-9 63 31 107l325 325c38 38 79 51 123 39 21-6 40-17 56-34 17-16 28-35 34-56 12-45-1-87-38-125l-281-281c-19-19-40-30-63-32s-41 4-57 19c-14 11-20 29-19 53 2 23 13 45 34 65l180 182c11 12 23 12 35 0s12-25 0-36l-180-180c-21-21-26-38-14-50 5-4 11-5 17-4 11 1 22 8 32 18l281 281c24 24 32 50 25 78s-26 46-54 53c-26 7-52-2-77-25l-295-296c-32-36-47-70-46-101 1-32 14-60 37-83s51-35 83-36 65 14 100 44l297 296c11 11 23 11 35 0 13-11 13-22 0-35l-296-297c-39-39-83-58-132-58z" horiz-adv-x="1000" />

<glyph glyph-name="entypo-collapse" unicode="&#xe80d;" d="M346 252l-65 62h182v-183l-61 65-91-96-61 62 96 90z m404 286l-95-89 64-61h-181v181l61-64 89 95 62-62z" horiz-adv-x="1000" />

<glyph glyph-name="entypo-compass" unicode="&#xe80e;" d="M500 639c78 0 144-27 201-82 57-56 86-122 88-202 1-81-26-148-82-206-56-57-122-86-203-88h-4c-78 0-144 27-202 83-58 56-86 122-87 203-1 81 25 148 81 205 56 58 123 86 204 87h4m0 45c-2 0-3 0-4 0-93-1-171-35-236-100-64-66-95-145-93-238 1-92 34-170 100-234 66-63 143-95 233-95 2 0 3 0 4 0 93 2 171 35 235 101 64 66 95 145 94 238-1 91-35 169-101 233-65 63-142 95-232 95h0z m-162-493c2 12 5 28 8 47 4 19 14 49 30 91s33 73 54 93c21 21 51 39 89 54s72 26 100 30l43 7c-2-12-5-28-9-47-3-18-13-49-29-90-16-42-34-73-55-94-20-20-49-38-88-53-39-15-72-25-101-30l-42-8z m121 187c-9-8-12-16-12-27 0-13 5-25 16-36 11-11 21-16 35-17h1c11 0 20 4 28 13l0 1 1 0c28 29 53 76 75 143-82-27-122-55-142-75l-1-1-1-1z" horiz-adv-x="1000" />

<glyph glyph-name="entypo-contact" unicode="&#xe80f;" d="M811 528v-356h-622v356h622m0 44h-622c-25 0-45-20-45-44v-356c0-24 20-44 45-44h622c25 0 45 20 45 44v356c0 24-20 44-45 44z m-268-289h-310v-44h310m0 133h-310v-44h310m0 133h-310v-44h310m203-132c-28 9-44 9-44 37 0 22 38 31 38 78 0 32-26 61-64 61s-63-29-63-61c0-47 38-55 38-78 0-28-16-28-45-37-28-9-18-46-18-46h177s10 37-19 46z" horiz-adv-x="1000" />

<glyph glyph-name="entypo-donwload" unicode="&#xe810;" d="M734 274c6-4 10-9 13-16 3-8 4-14 2-20l-14-77c-1-7-5-13-11-17s-13-6-20-6h-408c-7 0-14 2-20 6s-10 10-11 17l-14 77c-3 16 2 28 16 36l79 54h49l-85-65h89c3 0 5-2 6-4l20-55h150l20 55c3 2 5 4 6 4h89l-85 65h49l80-54z m-104 160l-130-122-130 122h83v128h95v-128h82z" horiz-adv-x="1000" />

<glyph glyph-name="dot-3" unicode="&#xe811;" d="M110 460q46 0 78-32t32-78q0-44-32-77t-78-33-78 33-32 77q0 46 32 78t78 32z m350 0q46 0 78-32t32-78q0-44-33-77t-77-33-77 33-33 77q0 46 32 78t78 32z m350 0q46 0 78-32t32-78q0-44-32-77t-78-33-78 33-32 77q0 46 32 78t78 32z" horiz-adv-x="920" />

<glyph glyph-name="entypo-expand" unicode="&#xe812;" d="M367 162l66-62h-183v183s62-66 62-66l90 97 62-62-96-90z m171 287l95 89-64 62h181v-182s-62 65-62 65l-88-95-62 61z" horiz-adv-x="1000" />

<glyph glyph-name="entypo-focus" unicode="&#xe813;" d="M736 586c-64 65-144 97-236 97s-172-32-236-97c-65-64-97-144-97-235s32-171 97-236c64-65 144-99 236-99s172 34 236 99c65 65 97 144 97 236s-32 171-97 235z m-31-440c-51-51-112-79-183-84v160c0 6-5 11-11 11h-22c-6 0-11-5-11-11v-160c-71 5-132 33-183 84-50 51-78 112-83 182h160c6 0 11 5 11 11v22c0 6-5 11-11 11h-160c5 70 32 132 83 183 51 50 112 78 183 83v-160c0-6 5-11 11-11h22c6 0 11 5 11 11v160c70-5 132-33 182-83 51-51 79-112 84-183h-160c-6 0-12-4-12-11v-22c0-6 6-11 12-11h160c-6-70-33-131-84-182z" horiz-adv-x="1000" />

<glyph glyph-name="entypo-globe" unicode="&#xe814;" d="M732 589c-65 63-142 94-232 94h-4c-93-1-171-34-235-100-65-65-96-145-94-237 1-92 34-170 101-234 65-64 142-95 232-95h4c93 1 171 35 235 101 64 66 95 145 95 238-2 91-36 169-102 233z m-326-513l2 2c3 3 8 7 15 12 7 6 14 10 21 11 3 1 38 9 51 11l33 12c19 7 35 11 46 12 8 1 16 2 23 2 32 0 53-10 64-28-46-31-98-47-157-49h-4c-34 0-65 6-95 16z m-71 411c7-6 10-7 12-7h1c4 2 11 3 20 3 2 0 5 0 7 0 13-1 23-2 31-5 1 0 5-1 15-3 9-2 18-4 26-7 8-2 18-6 29-12 12-6 21-13 26-21 5-8 9-19 12-32 4-13 2-29-6-46-4-9-18-21-40-34-21-12-34-28-40-46-5-18-8-35-8-49 0-2 0-9 2-28 1-15 1-28 1-38-1-17-8-21-13-21-10 0-22 10-40 31-24 28-27 36-27 42 0 0 0 5-5 29-4 19-6 35-6 48 0 5-4 14-24 28-19 13-29 27-29 43 0 14 5 29 13 45 11 20 10 26 10 28 0 0-1 3-6 5-4 2-9 4-15 5-6 1-12 2-18 3l-19 2c-8 1-12 1-15 1h-1c13 37 34 70 64 101 48 49 104 77 170 84l-2-3c-3-5-10-11-20-18-13-7-16-10-17-11-7-6-13-11-19-15-6-4-11-8-15-11-4-2-7-7-11-14-4-5-11-12-20-21-9-9-17-17-24-25-8-10-9-14-9-16 0-4 3-10 10-16z m392-309c-18 16-22 37-11 59 11 26 14 58 9 95-1 14-4 28-11 44-6 13-14 20-25 21-31 0-55 16-71 48-12 22-11 42 1 59 10 15 21 28 31 40 8 8 8 14 2 22l-10-1-22-8c-2-1-6-1-8-1-7 0-13 2-18 7-8 7-12 20-14 39-2 5 2 12 10 23 40-13 78-35 111-68 58-56 86-122 88-202 1-69-19-128-59-180l-3 3z" horiz-adv-x="1000" />

<glyph glyph-name="entypo-help" unicode="&#xe815;" d="M497 628c76 1 142-26 197-79 54-53 82-118 84-195 1-76-25-142-79-197-53-55-118-83-195-85-76-1-142 25-197 79s-83 119-85 195c-1 77 26 143 80 198 54 55 119 83 195 84z m93-250c10 13 15 28 15 45 0 30-10 52-31 67-20 15-46 22-78 22-24 0-44-5-60-15-26-16-40-45-41-85v-2h63v2c0 10 3 21 10 32 6 9 16 14 31 14s25-4 30-12c6-8 9-16 9-25 0-7-3-15-9-23-3-5-7-9-12-12l-12-9c-4-2-8-5-12-8l-12-10c-4-4-8-7-10-10-5-8-9-23-10-45v-5h62v3c0 4 1 10 2 16 3 8 8 14 17 21l16 10c18 13 28 23 32 29z m-96-190c12 0 21 4 28 11 8 7 11 16 11 27 1 12-2 21-9 28-8 8-17 11-29 11h-1c-10 0-20-3-27-10-7-7-11-16-12-27 0-11 3-21 11-28s16-12 27-12h1z" horiz-adv-x="1000" />

<glyph glyph-name="entypo-hourglass" unicode="&#xe816;" d="M652 466c21 24 31 45 31 64v79c0 49-92 74-183 74s-183-25-183-74v-79c0-19 10-41 31-64 21-23 42-45 64-65 21-21 32-38 32-52s-11-30-32-50c-22-21-43-42-64-65-21-22-31-44-31-64v-79c0-15 18-31 56-48 37-18 80-26 127-26s90 8 127 26c38 17 56 33 56 48v79c0 20-10 42-31 64-21 23-42 44-64 65-21 20-32 37-32 50s11 31 32 52c22 21 43 43 64 65z m-152 173c74 0 135-13 135-30s-61-31-135-31-135 14-135 31 61 30 135 30z m65-209c-11-10-18-17-20-20-3-3-7-9-13-17-6-8-10-15-12-22-2-7-3-14-3-22 0-5 1-10 1-15 1-5 3-10 6-16l8-13c2-3 6-8 12-15l12-12 28-28c40-40 60-67 60-81v-44c-3 2-17 7-44 16-26 8-47 18-61 28-15 11-22 24-22 39 0 13-5 20-17 20s-17-7-17-20c0-15-7-28-22-39-14-10-35-20-61-28-27-9-42-14-44-16v44c0 14 20 41 60 81l28 28 12 12c6 7 10 12 12 15l8 13c3 6 5 11 6 16 0 5 1 10 1 15 0 8-1 15-3 22-2 7-6 14-12 22-6 8-10 14-13 17-2 3-9 10-20 20l-19 19c-40 41-60 68-60 81l-2 32c36-18 91-28 146-28s110 10 145 28l-1-32c0-13-20-40-60-81l-20-19z" horiz-adv-x="1000" />

<glyph glyph-name="entypo-info" unicode="&#xe817;" d="M497 628c76 1 142-26 197-79 54-53 82-118 84-195 1-76-25-142-79-197-53-55-118-83-195-85-76-1-142 25-197 79s-83 119-85 195c-1 77 26 143 80 198 54 55 119 83 195 84z m-38-463c12 0 30 5 52 16 23 11 45 27 66 49l-11 15c-20-15-35-23-45-23-6 0-7 8-2 24l26 100c11 40 6 60-14 60-12 0-31-6-55-18-25-12-49-28-72-47l10-16c22 14 37 21 46 21 5 0 5-7 0-21l-22-95c-11-43-4-65 21-65z m75 370c-18 0-31-5-41-15-9-10-14-20-14-31-1-11 2-21 9-27 7-7 17-10 30-10 16 0 29 5 38 14 10 9 15 20 15 34 0 24-13 36-37 36z" horiz-adv-x="1000" />

<glyph glyph-name="entypo-link-external" unicode="&#xe818;" d="M625 205v28l50 41v-94c0-7-3-12-8-18-5-5-11-7-17-7h-375c-7 0-12 2-17 7-6 5-8 11-8 18v275c0 7 2 13 7 18 5 5 11 7 18 7h144c-11-8-21-16-30-25-9-8-15-15-19-19l-5-6h-65v-225h325z m-41 174c-55 0-96-7-121-20-25-14-52-44-80-91 0 3 0 6 1 11 0 5 1 14 4 28 3 14 6 27 11 40 5 12 12 26 22 41 10 16 22 29 35 40 14 11 31 20 54 28 22 8 47 12 74 12v78l166-125-166-130v89z" horiz-adv-x="1000" />

<glyph glyph-name="entypo-link" unicode="&#xe819;" d="M446 230c5 4 11 7 18 7s12-3 18-7c11-12 11-24 0-36l-22-21c-19-19-41-28-68-28s-48 9-68 28c-19 19-28 42-28 68s9 49 28 68l76 76c24 23 49 37 74 39 25 4 47-4 66-22 5-5 8-11 8-18s-3-13-8-18c-13-11-25-11-36 0-17 16-40 10-68-18l-76-74c-8-9-13-20-13-33s5-24 13-32 20-13 33-13 23 4 32 13l21 21z m230 293c20-19 29-41 29-68s-9-49-29-68l-80-81c-26-24-51-36-77-36-21 0-40 8-57 25-5 5-8 11-8 17s3 13 8 18c4 6 10 8 18 8s13-2 18-7c17-16 38-12 62 12l81 80c9 10 14 21 14 33s-5 24-14 32c-8 8-18 14-29 15s-21-1-30-10l-26-26c-6-5-12-7-18-7s-13 2-18 7c-11 12-11 24 0 36l26 25c18 19 40 28 65 27 25-1 47-12 66-32z" horiz-adv-x="1000" />

<glyph glyph-name="entypo-location" unicode="&#xe81a;" d="M500 683c62 0 114-20 157-61s65-90 65-148-18-126-55-202-74-138-112-185l-55-70c-6 6-14 16-24 29-10 13-28 37-53 74-26 37-48 73-68 108-19 36-37 77-53 123s-24 87-24 124c0 58 21 107 65 148s95 61 157 61z m0-333c31 0 57 11 79 33 22 22 33 48 33 79s-11 57-33 78c-22 22-48 32-79 32s-57-10-78-32c-22-21-32-47-32-78s10-57 32-79c21-22 47-33 78-33z" horiz-adv-x="1000" />

<glyph glyph-name="entypo-map" unicode="&#xe81b;" d="M802 506c7-4 10-11 10-19v-364c0-9-3-15-10-19-3-2-6-4-10-4s-7 2-11 4l-135 85-135-85c-7-4-14-4-21 0l-136 85-135-85c-7-4-13-4-21 0-7 4-10 10-10 19v364c0 8 3 15 10 19l146 91c7 4 14 4 21 0l135-85 136 85c7 4 13 4 20 0l146-91z m-468-281v316l-105-65v-316l105 65z m146-65v316l-105 65v-316l105-65z m146 65v316l-106-65v-316l106 65z m145-65v316l-105 65v-316l105-65z" horiz-adv-x="1000" />

<glyph glyph-name="entypo-media-forward" unicode="&#xe81c;" d="M480 366c7-4 10-10 10-17s-3-11-10-15l-256-176c-9-7-18-8-25-5-8 4-12 13-12 26v342c0 14 4 22 12 26s16 2 25-4l256-177z m323 0c7-4 10-10 10-17s-3-11-10-15l-265-176c-10-7-19-8-26-5-7 4-10 13-10 26v342c0 14 3 22 10 26 7 4 16 2 26-4l265-177z" horiz-adv-x="1000" />

<glyph glyph-name="entypo-media-next" unicode="&#xe81d;" d="M580 366c6-4 10-10 10-16s-4-12-10-17l-258-162c-10-6-19-7-25-3-7 4-10 12-10 25v314c0 12 3 21 10 25 6 4 15 3 25-4l258-162z m80 191c36 0 53-14 53-42v-331c0-28-18-41-53-41s-54 14-54 41v332c0 27 18 41 54 41z" horiz-adv-x="1000" />

<glyph glyph-name="entypo-media-pause" unicode="&#xe81e;" d="M376 599c42 0 64-15 64-46v-405c0-31-22-47-64-47s-64 16-64 47v405c0 31 21 46 64 46z m248 0c43 0 64-15 64-46v-405c0-31-21-47-64-47s-64 16-64 47v405c0 31 22 46 64 46z" horiz-adv-x="1000" />

<glyph glyph-name="entypo-media-play" unicode="&#xe81f;" d="M634 364c5-4 8-8 8-14s-3-10-8-14l-243-147c-9-6-17-7-23-3-6 3-9 11-9 22v284c0 12 3 19 9 23 7 3 14 2 23-4l243-147z" horiz-adv-x="1000" />

<glyph glyph-name="entypo-media-previous" unicode="&#xe820;" d="M287 516c0 27 17 41 53 41s53-14 53-41v-332c0-27-17-41-53-41s-53 14-53 41v332z m123-167c0 7 4 13 10 17l259 162c10 7 18 8 24 4 7-4 10-13 10-25v-314c0-12-3-21-10-25-6-4-14-3-24 4l-259 162c-6 4-10 10-10 15z" horiz-adv-x="1000" />

<glyph glyph-name="entypo-media-record" unicode="&#xe821;" d="M500 517c46 0 86-17 118-49 32-32 49-72 49-118s-17-85-49-118c-32-32-72-49-118-49s-86 17-118 49c-33 33-49 72-49 118s17 86 49 118c32 32 72 49 118 49z" horiz-adv-x="1000" />

<glyph glyph-name="entypo-media-rewind" unicode="&#xe822;" d="M187 349c0 7 4 13 10 17l266 177c10 6 18 8 26 4 7-4 11-13 11-26v-342c0-14-4-22-11-26-8-4-16-2-26 4l-266 177c-6 3-10 8-10 15z m323 0c0 7 3 13 10 17l256 177c9 6 18 8 25 4 8-4 12-13 12-26v-342c0-14-4-22-12-26-7-4-16-2-25 4l-256 177c-7 3-10 8-10 15z" horiz-adv-x="1000" />

<glyph glyph-name="entypo-media-stop" unicode="&#xe823;" d="M644 450v-200c0-24-20-44-44-44h-200c-24 0-44 20-44 44v200c0 24 20 44 44 44h200c24 0 44-20 44-44z" horiz-adv-x="1000" />

<glyph glyph-name="entypo-media-volume-0" unicode="&#xe824;" d="M500 569c-8 5-17 4-28-4l-150-104h-122c-12 0-22-10-22-22v-178c0-12 10-22 22-22h121l151-104c11-8 20-9 28-4 7 5 11 14 11 29v380c0 14-4 24-11 29z m241-301l-9-9c-5-5-14-5-20 1 0 0-29 27-62 59-32-32-62-59-62-59-6-6-14-6-20-1l-9 9c-5 5-5 14 1 20 0 0 27 29 59 62-32 32-59 62-59 62-6 6-6 15-1 20l9 9c6 5 14 5 20-1 0 0 30-27 62-59 33 32 62 59 62 59 6 6 15 6 20 1l9-9c5-5 5-14-1-20 0 0-27-29-59-62 32-32 59-62 59-62 6-6 6-15 1-20z" horiz-adv-x="1000" />

<glyph glyph-name="entypo-media-volume-1" unicode="&#xe825;" d="M500 569c-8 5-17 4-28-4l-150-104h-122c-12 0-22-10-22-22v-178c0-12 10-22 22-22h121l151-104c11-8 20-9 28-4 7 5 11 14 11 29v380c0 14-4 24-11 29z m82-275c-2 2-2 6 0 8l2 2h0c12 12 18 29 18 46s-6 33-18 46h0s-2 2-2 2c-2 2-2 6 0 8l23 23s3 1 4 1 3 0 4-1c21-21 33-49 33-79s-12-58-33-80c-1-1-3-1-4-1s-3 1-4 1l-23 24z" horiz-adv-x="1000" />

<glyph glyph-name="entypo-media-volume-2" unicode="&#xe826;" d="M500 569c-8 5-17 4-28-4l-150-104h-122c-12 0-22-10-22-22v-178c0-12 10-22 22-22h121l151-104c11-8 20-9 28-4 7 5 11 14 11 29v380c0 14-4 24-11 29z m82-275c-2 2-2 6 0 8l2 2h0c12 12 18 29 18 46s-6 33-18 46h0s-2 2-2 2c-2 2-2 6 0 8l23 23s3 1 4 1 3 0 4-1c21-21 33-49 33-79s-12-58-33-80c-1-1-3-1-4-1s-3 1-4 1l-23 24z m71-66c-2 2-2 6 0 8l2 2h0c29 30 45 70 45 112s-16 81-45 112h0s-2 2-2 2c-2 2-2 5 0 7l23 23s3 2 4 2 3-1 4-2c38-38 60-90 60-144s-22-106-60-145c-1-1-3-2-4-2s-3 1-4 2l-23 23z" horiz-adv-x="1000" />

<glyph glyph-name="entypo-media-volume-3" unicode="&#xe827;" d="M582 294c-2 2-2 6 0 8l2 2h0c12 12 18 29 18 46s-6 34-18 46h0s-2 2-2 2c-2 2-2 6 0 8l23 23s3 1 4 1 3 0 4-1c21-21 33-49 33-79s-12-58-33-79c-1-1-3-2-4-2s-3 1-4 2l-23 23z m94-88s3-2 4-2 3 1 4 2c38 38 60 90 60 144s-22 106-60 145c-1 1-3 1-4 1s-3 0-4-1l-23-23c-2-2-2-6 0-8l2-2h0c29-30 45-70 45-112s-16-81-45-111h0s-2-2-2-2c-2-2-2-6 0-8l23-23z m76 362s-3 2-4 2-3-1-4-2l-23-23c-2-2-2-6 0-8l2-2h0c49-50 75-115 75-185s-26-135-75-185h0s-2-2-2-2c-2-2-2-5 0-7l23-24s3-1 4-1 3 1 4 1c58 59 90 136 90 218s-32 160-90 218z m-241-28v-380c0-15-4-24-11-29-8-5-17-4-28 4l-150 104h-122c-12 0-22 10-22 22v178c0 12 10 22 22 22h122l151 104c10 8 19 9 27 4 8-5 11-15 11-29z" horiz-adv-x="1000" />

<glyph glyph-name="entypo-minus" unicode="&#xe828;" d="M667 357v-14c0-7-7-13-15-13 0 0-84-1-130-2-1-45-2-130-2-130 0-8-6-15-13-15h-14c-7 0-13 7-13 15 0 0-1 84-2 130-45 1-130 2-130 2-8 0-15 6-15 13v14c0 7 7 13 15 13 0 0 84 1 130 2 1 45 2 130 2 130 0 8 6 15 13 15h14c7 0 13-7 13-15 0 0 1-84 2-130 45-1 130-2 130-2 8 0 15-6 15-13z" horiz-adv-x="1000" />

<glyph glyph-name="entypo-plus" unicode="&#xe829;" d="M652 370c8 0 15-6 15-13v-14c0-7-7-13-15-13 0 0-123-2-152-2s-152 2-152 2c-8 0-15 6-15 13v14c0 7 7 13 15 13 0 0 123 2 152 2s152-2 152-2z" horiz-adv-x="1000" />

<glyph glyph-name="entypo-reference" unicode="&#xe82a;" d="M817 437c11-6 16-13 16-22s-5-15-16-21l-52-29-205 67c-10 15-30 23-60 23-18 0-33-3-45-10-12-7-18-16-18-26s6-19 18-26c12-7 27-11 45-11 12 0 20 1 24 3l195-45-179-99c-27-14-53-14-80 0l-277 153c-11 6-16 13-16 22s5 15 16 21l277 153c27 14 53 14 80 0l277-153z m-540-162l223-110 184 89-9-54c-1-4-4-9-8-15-4-5-9-10-16-15s-16-9-30-14c-17-8-35-17-53-27-18-10-32-17-42-22-10-5-19-7-26-7s-16 3-27 8c-10 6-25 14-42 25-18 10-36 19-54 26-32 14-55 29-68 45s-25 39-32 71z m455-126c8 50 11 90 9 118s-7 49-13 59l-9 14 46 25c3-3 6-9 8-18s7-31 12-66 3-78-5-128c-2-12-7-18-15-20-8-2-15-1-23 3-8 4-11 8-10 13z" horiz-adv-x="1000" />

<glyph glyph-name="entypo-search" unicode="&#xe82b;" d="M775 111l-168 175c28 37 43 80 43 128 0 59-21 110-62 151-42 42-93 63-152 63s-110-21-152-63c-41-41-62-92-62-151s21-109 62-151c42-42 93-63 152-63 49 0 92 14 128 42l175-167c4-4 11-4 16 0l19 20c4 4 5 11 0 15z m-457 185c-32 33-48 72-48 118s16 86 48 118c32 32 72 48 118 48s86-16 118-48c33-33 49-72 49-118s-16-85-49-118c-32-32-72-49-118-49s-86 17-118 49z" horiz-adv-x="1000" />

<glyph glyph-name="entypo-settings" unicode="&#xe82c;" d="M702 350c0-29 16-53 48-73-5-15-12-32-20-49-28 8-55-1-81-26-21-23-28-50-20-81-16-8-33-15-50-21-19 32-45 49-79 49s-60-16-79-49c-17 6-34 14-50 21 8 32 1 59-20 81s-48 28-81 21c-5 10-12 26-20 49 32 20 49 46 49 78 0 29-16 53-49 74 8 22 15 38 20 49 30-7 57 1 81 26 21 22 28 49 20 81 17 9 34 16 50 20 19-32 45-47 79-47s60 15 79 47c16-4 33-11 50-20-8-31-1-58 20-81 26-25 53-33 81-26 8-17 15-33 20-49-32-20-48-44-48-74z m-202-108c30 0 56 10 77 31 21 21 31 47 31 77s-10 56-31 77c-21 22-47 33-77 33s-56-11-77-33c-21-21-31-47-31-77s10-56 31-77c21-21 47-31 77-31z" horiz-adv-x="1000" />

<glyph glyph-name="entypo-tools" unicode="&#xe82d;" d="M316 433c-3-3-5-7-6-12-1-5-1-9-1-13s-1-6-1-6l-10-8c-5-5-8-8-10-9-6-5-10-4-15 2l-37 41c-4 4-4 8 1 12 1 1 4 4 10 8 5 4 9 7 10 8 3 3 7 4 15 4s14 2 19 7c5 5 9 12 10 20 1 9 3 14 5 16 1 0 3 2 5 4 3 3 7 7 14 12s14 11 22 16c47 32 81 49 99 51 43 0 70 0 79-1 4 0 3-1-4-4-43-18-70-32-81-40-29-20-35-41-20-61 12-17 19-25 21-26 3-3 2-5-1-7l-41-38c-5-3-8-3-9-2-15 17-28 28-38 32-10 4-22 2-36-6z m-10-271l136 132 40-46-131-129c-7-7-14-7-20-2l-25 25c-7 6-7 13 0 20z m162 257l219-254c7-8 6-15-1-20l-26-23c-7-4-14-4-20 3l-220 251c-3 3-3 7 0 11l38 33c4 3 8 2 11-1z m296 108c6-37 3-67-9-89-17-31-45-42-82-33-20 4-37-1-53-17l-44-42-36 42 36 37c9 9 14 18 17 29s3 21 3 34c-1 13 0 23 2 31 5 20 30 40 75 60 4 2 8 1 10-2 2-3 2-5 1-8-4-4-13-18-25-42-5-4-7-10-6-19 1-9 8-18 21-28 21-14 38-10 51 12 3 4 7 11 14 21 7 11 11 17 12 18 1 3 4 5 7 5 3-1 5-4 6-9z" horiz-adv-x="1000" />

<glyph glyph-name="entypo-view" unicode="&#xe82e;" d="M500 572c41 0 80-6 118-20 38-13 69-29 94-49 25-19 47-40 66-61 19-21 33-40 42-56 9-16 13-28 13-36s-4-19-13-35c-9-15-23-34-42-56s-41-43-66-62-56-36-94-49c-38-14-77-20-118-20s-80 7-118 20c-38 13-69 29-94 49-25 19-47 40-66 62-19 22-33 40-42 56-9 16-13 28-13 35s4 20 13 36c9 16 23 35 42 56 19 21 41 42 66 61 25 20 56 36 94 49 38 14 77 20 118 20z m0-388c46 0 85 16 118 49 32 32 49 72 49 118s-17 85-49 117c-33 33-72 49-118 49s-85-16-118-49c-32-32-49-71-49-117s17-86 49-118c33-33 72-49 118-49z m0 166c4-4 13-5 28-2 14 4 27 6 37 9s17 0 19-7c0-23-8-42-24-58-17-16-37-24-60-24s-42 8-58 24-24 36-24 59 8 43 24 59 35 24 58 24c7 0 10-6 8-18-2-12-5-24-9-37-4-12-4-22 1-29z" horiz-adv-x="1000" />

<glyph glyph-name="entypo-warning" unicode="&#xe82f;" d="M747 154c4-6 4-11 0-17-3-6-8-9-15-9h-464c-6 0-11 3-14 8-5 6-5 12-1 18l231 409c3 6 8 9 16 9s13-3 16-9l231-409z m-218 117v157h-57v-157h57z m0-91v52h-57v-52h57z" horiz-adv-x="1000" />

<glyph glyph-name="dot-2" unicode="&#xe830;" d="M110 460q46 0 78-32t32-78q0-44-32-77t-78-33-78 32-32 78 32 78 78 32z m350 0q46 0 78-32t32-78q0-44-33-77t-77-33q-46 0-78 32t-32 78 32 78 78 32z" horiz-adv-x="570" />

<glyph glyph-name="dot" unicode="&#xe831;" d="M110 460q46 0 78-32t32-78q0-44-32-77t-78-33-78 33-32 77q0 46 32 78t78 32z" horiz-adv-x="220" />

<glyph glyph-name="syrios-check-medium" unicode="&#xe832;" d="M655 462l-10 9c-5 5-13 5-19-1l-152-170c-6-8-8-8-15-1l-85 78c-6 5-14 6-19 1l-10-10c-5-5-4-14 1-19l112-115c5-5 12-5 17 0l179 208c5 6 6 15 0 20z" horiz-adv-x="1000" />

<glyph glyph-name="syrios-check-thin" unicode="&#xe833;" d="M719 504l-15 15c-5 5-14 4-19-1l-237-266c-7-8-8-7-16-1l-128 109c-5 5-14 6-19 0l-15-14c-5-5-4-14 1-20l163-156c4-5 12-4 16 0l268 314c5 6 6 15 1 20z" horiz-adv-x="1000" />

<glyph glyph-name="syrios-circle-medium" unicode="&#xe834;" d="M500 583c65 0 120-23 165-68 45-45 68-100 68-164s-23-120-68-166c-45-45-100-68-165-68s-120 23-165 68c-45 46-68 102-68 166s23 119 68 164c45 45 100 68 165 68m0 45c-77 0-143-28-197-81-54-54-81-120-81-196s27-143 81-197c54-54 120-82 197-82s143 28 197 82c54 54 81 120 81 197s-28 142-81 196c-54 53-120 81-197 81z" horiz-adv-x="1000" />

<glyph glyph-name="syrios-circle-thick" unicode="&#xe835;" d="M500 556c58 0 106-20 146-60 40-40 60-88 60-145s-20-105-60-146c-41-41-88-60-146-60s-105 19-146 60c-40 41-60 89-60 146s20 105 60 145c40 40 88 60 146 60m0 44c-70 0-129-24-177-73-49-48-73-107-73-176s24-128 73-177c49-49 107-74 177-74s129 25 177 74c49 49 73 108 73 177s-24 128-73 176c-48 49-107 73-177 73z" horiz-adv-x="1000" />

<glyph glyph-name="syrios-circle-thin" unicode="&#xe836;" d="M500 639c80 0 149-28 205-84 56-56 84-125 84-204s-28-148-84-205c-56-56-125-85-205-85s-149 29-205 85c-55 57-84 126-84 205s28 148 84 204c56 55 125 84 205 84m0 44c-92 0-172-32-236-97-65-64-97-144-97-235s32-171 97-236c64-65 144-99 236-99s172 34 236 99c65 65 97 144 97 236s-32 171-97 235c-64 64-144 97-236 97z" horiz-adv-x="1000" />

<glyph glyph-name="syrios-coin-hand" unicode="&#xe837;" d="M467 628c-62 0-111-50-111-111s49-111 111-111 111 49 111 111-50 111-111 111z m380-290c-15 25-46 34-72 24-1 6-3 11-6 16-15 25-49 34-75 18l-12-7c-1 5-3 10-6 14-14 24-46 32-70 17l-130-80c-21 5-40 11-54 19-52 29-88 47-146 34-49-11-116-27-116-28-11-2-18-13-15-24 3-11 14-17 24-14 1 0 67 17 115 27 42 9 65 1 119-30 51-29 139-34 182-36 6 0 11-1 15-1 4 0 19-2 19-16 0-16-13-17-25-19-58-8-172 0-173 0-11 1-20-7-21-18s7-21 18-22c3 0 54-4 106-4 27 0 54 2 76 4 21 4 44 10 54 34l133 77c9 6 21 3 27-6 2-5 3-9 2-14-1-5-4-9-9-11-1-1-206-123-264-157-52-31-73-31-130 1-39 21-49 27-57 31l-20 11c-34 19-67 20-102 3-19-9-53-24-74-34l-4-2c-10-5-14-16-10-26 5-10 17-15 27-10l3 1c22 10 56 26 74 35 24 11 44 11 66-1l22-12c8-4 18-10 56-31 35-19 61-29 87-29s50 9 82 29c58 34 264 156 264 156 14 9 24 21 27 37 4 15 1 31-7 44z m-133 24c7 4 17 2 21-5 2-4 3-7 2-11-1-4-3-6-6-9l-77-45c-4 10-11 18-19 24l79 46z m-88 24c6 4 13 2 16-4 2-3 6-12-3-18h0s-61-35-61-35c-12 0-26 1-41 3l89 54z" horiz-adv-x="1000" />

<glyph glyph-name="syrios-coin-rotate" unicode="&#xe838;" d="M889 350c0-92-174-167-389-167s-389 75-389 167c0 76 117 139 278 160v-45c-145-20-233-75-233-115 0-50 134-122 344-122s344 72 344 122c0 34-61 78-166 103v-53c0-6-4-8-9-4l-94 75c-4 4-4 10 0 14l94 75c5 4 9 2 9-4v-58c125-27 211-83 211-148z m-411-211v-167c0-6 5-11 11-11h22c6 0 11 5 11 11v167c-7 0-14 0-22 0s-15 0-22 0z m44 589v-455c-7 0-14-1-22-1s-15 0-22 1v455c0 6 5 11 11 11h22c6 0 11-5 11-11z" horiz-adv-x="1000" />

<glyph glyph-name="syrios-coin-scale" unicode="&#xe839;" d="M339 282c26 0 46-9 65-27 18-18 27-38 28-65 0-26-8-47-27-66-18-18-39-27-65-28h-1c-25 0-46 8-64 26-19 19-28 40-29 66 0 26 8 46 27 65 18 19 39 28 65 28h1m0 47h-2c-38-1-71-15-97-42-27-28-41-61-40-99 1-39 15-71 42-98 27-26 59-39 96-39h3c38 0 71 14 97 42 27 28 40 61 40 99-1 38-15 71-42 97-27 27-60 40-97 40z m113 8l117 116-39 40c-5 4-3 8 3 9l119 13c6 1 10-4 10-10l-14-119c0-6-4-7-9-3l-39 39-116-116c-5 6-10 11-16 17-5 5-10 10-16 14z m289 261c-59 57-130 86-213 86h-4c-84-1-155-32-215-92-59-61-88-133-87-218 0-16 2-31 4-46 13 12 27 21 42 28-1 6-1 13-1 19-1 73 23 134 74 186 51 52 111 78 184 79h3c71 0 131-24 182-74 52-50 78-110 79-183 1-72-23-133-74-186-51-52-111-78-183-79h-5c-8 0-15 0-22 1-7-15-17-29-28-42 16-2 33-4 50-4h5c84 2 156 33 215 93 59 61 87 133 86 218-1 84-32 155-92 214z" horiz-adv-x="1000" />

<glyph glyph-name="syrios-coin-sort1" unicode="&#xe83a;" d="M278 639c36 0 66-30 66-67s-30-66-66-66-67 30-67 66 30 67 67 67m0 44c-62 0-111-49-111-111s49-111 111-111 111 50 111 111-50 111-111 111z m266-44c37 0 67-30 67-67s-30-66-67-66-66 30-66 66 30 67 66 67m0 44c-61 0-111-49-111-111s50-111 111-111 112 50 112 111-50 111-112 111z m-266-311c36 0 66-30 66-66s-30-67-66-67-67 30-67 67 30 66 67 66m0 45c-62 0-111-50-111-111s49-112 111-112 111 50 111 112-50 111-111 111z m444-178c62 0 111-50 111-111s-49-111-111-111-111 49-111 111 50 111 111 111m-93 13l-103 103 40 39c4 5 3 9-3 10l-120 13c-6 1-10-4-9-10l13-119c1-6 5-8 9-3l39 39 103-103c9 12 20 23 32 31z" horiz-adv-x="1000" />

<glyph glyph-name="syrios-coin-sort2" unicode="&#xe83b;" d="M333 167c37 0 67-30 67-67s-30-67-67-67-66 30-66 67 30 67 66 67m0 44c-61 0-111-50-111-111s50-111 111-111 111 50 111 111-49 111-111 111h0z m111 389c0 61-49 111-111 111s-111-50-111-111 50-111 111-111 111 50 111 111z m-33-250h-55v108c-8-2-15-2-23-2s-15 0-22 2v-108h-55c-6 0-8-4-5-8l75-94c4-5 10-5 14 0l75 94c4 4 2 8-4 8z m256 183c-37 0-67 30-67 67s30 67 67 67 66-30 66-67-30-67-66-67m0-44c61 0 111 50 111 111s-50 111-111 111-111-50-111-111 49-111 111-111h0z m-111-389c0-61 49-111 111-111s111 50 111 111-50 111-111 111-111-50-111-111z m33 250h55v-108c8 2 15 2 23 2s15 0 22-2v108h55c6 0 8 4 5 8l-75 94c-4 5-10 5-14 0l-75-94c-4-4-2-8 4-8z" horiz-adv-x="1000" />

<glyph glyph-name="syrios-coin-timeline" unicode="&#xe83c;" d="M744 394c-53 0-98-38-108-88h-114v222h114c10-51 55-89 108-89 62 0 112 50 112 111s-50 111-112 111c-53 0-98-38-108-89h-114v156c0 6-5 11-11 11h-22c-6 0-11-5-11-11v-289h-114c-10 51-55 89-108 89-62 0-112-50-112-111s50-111 112-111c53 0 98 38 108 88h114v-222h-114c-10 51-55 89-108 89-62 0-112-50-112-111s50-111 112-111c53 0 98 38 108 89h114v-156c0-6 5-11 11-11h22c6 0 11 5 11 11v289h114c10-51 55-89 108-89 62 0 112 50 112 111s-50 111-112 111z m0 223c37 0 67-30 67-67s-30-67-67-67-66 30-66 67 30 67 66 67z m-488-267c-37 0-67 30-67 67s30 66 67 66 66-30 66-66-30-67-66-67z m0-267c-37 0-67 30-67 67s30 67 67 67 66-30 66-67-30-67-66-67z m488 134c-36 0-66 30-66 66s30 67 66 67 67-30 67-67-30-66-67-66z" horiz-adv-x="1000" />

<glyph glyph-name="syrios-media-play-video" unicode="&#xe83d;" d="M627 360c4-2 6-6 6-10s-2-8-6-10l-180-108c-7-5-13-5-18-3-5 3-7 9-7 17v208c0 9 3 14 7 17 5 2 11 2 18-3l180-108z m-127 279c-80 0-149-28-205-84-55-56-84-125-84-204s28-148 84-205c56-56 125-85 205-85s149 29 205 85c55 57 84 126 84 205s-29 148-84 204c-56 55-125 84-205 84m236-53c64-64 97-144 97-235s-32-171-97-236c-64-65-144-98-236-98s-172 33-236 98c-65 65-97 144-97 236s32 171 97 235c64 65 144 98 236 98s172-33 236-98z" horiz-adv-x="1000" />

<glyph glyph-name="syrios-numisma-reverse" unicode="&#xe83e;" d="M567 252l-41-102h-52l-124 313-119-299c60-87 155-147 269-147 104 0 193 50 254 124l-44 111h-143z m-217-65c-29 0-53 24-53 53s23 52 53 52 52-23 52-52-23-53-52-53z m327 344l126-317c-9-19-22-34-34-50l-44 110h-149l20 50h109l-55 139h0s27 68 27 68z m-39-98l35-87h-69l35 87z m-288-163c16 0 30-14 30-30s-14-31-30-31-31 14-31 31 14 30 31 30z m150 413c-184 0-333-149-333-333 0-49 11-94 30-136l133 336h39l131-331 131 331h62l120-301c10 32 20 65 20 101 0 184-149 333-333 333z m40-216l-23-6-1 1c-2 3-4 6-7 8-2 2-5 2-9 2l-5 0-3-2-3-2-1-3 2-4 4-4c2-1 6-3 11-4l1-1h0c6-2 11-4 14-6 4-2 7-5 10-8 3-2 4-5 6-8 1-4 2-7 1-10 0-4-1-8-3-12-2-4-5-7-8-10-4-2-8-4-12-6-4-1-9-2-14-2-9 0-18 2-25 6-7 4-12 11-16 19l0 1h1s23 7 23 7l1-1c2-3 4-6 7-8 2-2 5-2 9-2l5 0 3 2 3 2 1 3-2 4-4 4c-2 1-6 3-11 4l-1 1h0c-6 2-11 4-14 6-4 2-7 5-10 8-3 2-4 5-6 8-1 4-2 7-1 10 0 4 1 8 3 12 2 4 5 7 8 10 4 2 8 4 12 6 4 1 9 2 14 2 10 0 18-2 25-6 7-4 13-11 16-19l1-1h-2z" horiz-adv-x="1000" />

<glyph glyph-name="syrios-numisma-simple" unicode="&#xe83f;" d="M500 683c-184 0-333-149-333-333s149-333 333-333 333 149 333 333-149 333-333 333z m0-622c-98 0-180 52-232 127l100 251 102-258h60l134 338h-61l-103-258-102 258h-61l-106-268c-11 31-20 64-20 99 0 160 130 289 289 289s289-129 289-289-130-289-289-289z" horiz-adv-x="1000" />

<glyph glyph-name="syrios-numisma" unicode="&#xe840;" d="M500 683c-184 0-333-149-333-333s149-333 333-333 333 149 333 333-149 333-333 333z m-275-217c15 36 37 68 64 95 27 27 59 49 95 64 37 16 76 24 116 24s79-8 116-24c36-15 68-37 95-64 27-27 49-59 64-95 16-37 24-76 24-116s-8-79-24-116c-2-4-4-8-6-12l-119 304h-38l-112-286-112 286h-38l-119-304c-2 4-5 8-7 12-15 37-23 76-23 116s8 79 23 116z m523-281l-32 82-8 20-3 7h-139l8 21h123l-6 15-41 104-14 38 12 30 114-293c-4-8-8-17-13-24h-1z m-169 141l51 130 10-26 41-104h-102z m132-187c-27-27-59-49-95-64-36-16-76-24-116-24s-79 8-116 24c-36 15-68 37-95 64-11 11-21 24-31 37l111 284 112-286h39l42 109h136l8-20 34-89h0c-8-12-18-24-29-35z m-196 238c0 1 1 3 1 5 0 1-1 3-2 6-2 2-4 4-6 5-2 1-5 3-10 5-6 2-10 4-13 6-3 2-5 4-8 7-2 3-4 5-5 8-1 3-1 6-1 9 0 4 0 8 2 11 1 3 4 6 7 8 2 3 6 5 9 6 4 1 8 2 12 2 5 0 11-1 17-3 5-3 10-6 14-11l2-3-15-12-2 2c-3 3-5 5-7 6-1 0-2 1-3 1-2 0-3 1-5 1-2 0-4-1-6-1-1-1-2-1-4-2-1-1-1-1-2-2 0-1 0-2 0-3h0s0-2 0-3c1-1 1-1 2-2 1-1 3-2 5-3 2-2 4-3 7-4 6-3 11-5 14-7 4-3 7-5 9-8 3-3 4-6 6-10 1-3 1-7 1-10 0-4 0-8-2-12-2-4-4-7-7-10-3-3-6-5-10-7-4-1-8-2-12-2-9 0-16 2-23 7-6 5-11 11-15 20l-1 3 19 6 1-3c2-5 4-8 8-10 2-3 6-4 10-4 2 0 4 1 6 1 1 1 2 2 4 3 1 1 2 2 2 3z m-107-75c-6 5-12 9-18 12-6 2-13 4-20 4-8 0-15-2-21-4-7-3-13-7-18-12-5-5-9-10-12-16-2-6-4-13-4-20 0-7 2-14 4-20 3-7 7-12 12-18 5-5 11-9 18-11 6-3 13-4 21-4 7 0 14 1 21 4 6 3 12 6 17 11 5 6 9 11 12 18 3 6 4 13 4 20 0 7-1 14-4 20-3 6-7 12-12 17z m-7-49c-1-4-4-8-7-11-4-3-7-6-11-7-4-2-8-3-13-3-5 0-10 1-14 3-4 1-8 4-12 7-3 3-6 7-7 11-2 3-3 8-3 13 0 4 1 8 3 12 1 4 4 8 7 11h0c4 3 7 6 11 7 4 2 9 3 13 3 6 0 10-1 14-3 4-1 8-4 12-7 3-3 6-7 7-11 2-4 3-8 3-13 0-4-1-8-3-12z m-70-25h0s0 0 0 0z" horiz-adv-x="1000" />

<glyph glyph-name="syrios-sqaure-medium" unicode="&#xe841;" d="M711 561v-422h-422v422h422m0 45h-422c-25 0-45-20-45-45v-422c0-25 20-45 45-45h422c25 0 45 20 45 45v422c0 25-20 45-45 45h0z" horiz-adv-x="1000" />

<glyph glyph-name="syrios-sqaure-thick" unicode="&#xe842;" d="M688 539s1-1 1-1v-376s-1-1-1-1h-376s-1 1-1 1v376s1 1 1 1h376m0 44h-376c-25 0-45-20-45-45v-376c0-25 20-45 45-45h376c25 0 45 20 45 45v376c0 25-20 45-45 45h0z" horiz-adv-x="1000" />

<glyph glyph-name="syrios-sqaure-thin" unicode="&#xe843;" d="M776 628s2-1 2-2v-552s-1-2-2-2h-552s-2 1-2 2v552s1 2 2 2h552m0 44h-552c-26 0-46-20-46-46v-552c0-26 20-46 46-46h552c26 0 46 20 46 46v552c0 26-20 46-46 46h0z" horiz-adv-x="1000" />

<glyph glyph-name="syrios-stories-book" unicode="&#xe844;" d="M843 681c-8 5-15 5-23 0l-242-151-78-49-78 49-242 151c-7 5-15 5-23 0-8-4-12-11-12-21v-490c0-14 4-24 12-31l331-122c4-3 20-3 25 0l330 122c9 7 13 17 13 31v490c0 10-4 17-12 21z m-366-600l-285 177v360l285-177v-360z m332 195h0v-18l-286-177v360l286 177v-342z m-376-93c0-6-4-8-9-5l-178 110c-6 4-10 11-10 17v30c0 6 4 9 10 6l178-111c5-3 9-11 9-17v-30z m134 90c0-6 5-8 10-5l178 111c5 3 9 11 9 17v30c0 6-4 8-9 5l-178-111c-5-3-10-11-10-17v-30z m197 243c0 6-4 8-9 5l-178-110c-5-4-9-11-9-17v-30c0-6 4-9 9-6l178 111c5 3 9 11 9 17v30z m-197-333c0-6 5-8 10-5l113 70c5 3 9 11 9 17v30c0 6-4 8-9 5l-113-70c-5-3-10-11-10-17v-30z m-231 293c-39 20-72 2-72-43 0-44 32-97 71-118s71-2 72 42-32 98-71 119z" horiz-adv-x="1000" />

<glyph glyph-name="syrios-stories-card" unicode="&#xe845;" d="M344 461c-61 0-111-50-111-111s50-111 111-111 112 50 112 111-50 111-112 111z m156-178h267v-44h-267v44z m0 178h267v-44h-267v44z m0-89h267v-44h-267v44z m311 200h-622c-25 0-45-20-45-44v-356c0-24 20-44 45-44h622c25 0 45 20 45 44v356c0 24-20 44-45 44z m0-400h-622v356h622v-356z" horiz-adv-x="1000" />

<glyph glyph-name="syrios-x-medium" unicode="&#xe846;" d="M591 468s-59-57-91-88c-32 31-91 88-91 88-5 5-14 6-19 1l-9-9c-5-5-4-14 1-19 0 0 57-59 88-91-31-32-88-91-88-91-5-5-6-14-1-19l9-9c5-5 14-4 19 1 0 0 59 57 91 88 32-31 91-88 91-88 5-5 14-6 19-1l9 9c5 5 4 14-1 19 0 0-57 59-88 91 31 32 88 91 88 91 5 5 6 14 1 19l-9 9c-5 5-14 4-19-1z" horiz-adv-x="1000" />

<glyph glyph-name="syrios-x-thin" unicode="&#xe847;" d="M694 192l-153 158 153 158c8 7 8 20 0 28l-8 8c-8 8-21 8-28 0l-158-153-158 153c-7 8-20 8-28 0l-8-8c-8-8-8-21 0-29l153-157-153-158c-8-8-8-20 0-28l8-8c8-8 21-8 28 0l158 153 158-153c3-4 8-6 14-6s10 2 14 6l8 8c8 8 8 21 0 28z" horiz-adv-x="1000" />

<glyph glyph-name="suitcase" unicode="&#xe848;" d="M900 650q42 0 71-30t29-70l0-550q0-42-29-71t-71-29l-50 0 0 750 50 0z m-900-100q0 40 30 70t70 30l50 0 0-750-50 0q-40 0-70 29t-30 71l0 550z m670 204l0-104 110 0 0-750-560 0 0 750 110 0 0 104q98 46 170 46t170-46z m-60-104l0 66q-52 24-110 24-54 0-110-24l0-66 220 0z" horiz-adv-x="1000" />

<glyph glyph-name="book" unicode="&#xe849;" d="M682 594q18-8 18-28l0-562q0-14-12-25t-28-11q-46 0-46 36l0 522q0 12-12 18l-404 216q-32 10-68-10-44-20-56-44l408-228q18-8 18-28l0-550q0-22-18-28-6-4-16-4-14 0-20 4-8 6-202 127t-212 131q-26 18-26 34l-6 524q0 28 14 52 28 46 102 77t116 9z" horiz-adv-x="700" />

<glyph glyph-name="archive" unicode="&#xe84a;" d="M840 600l0-50-696 0 0 50q0 22 13 35t25 15l608 0q6 0 14-1t22-14 14-35z m-148 150q6 0 14-1t22-14 14-35l-498 0q0 22 13 35t25 15l410 0z m248-200q34-32 38-46 6-18 0-54l-76-450q-4-22-20-35t-28-15l-710 0q-52 0-60 50-6 26-39 223t-39 227q-10 22-3 44t10 26 21 20l10 10 30 30 0-80 836 0 0 80z m-248-270l0 100-70 0 0-80-260 0 0 80-68 0 0-100q0-50 48-50l300 0q22 0 35 12t13 24z" horiz-adv-x="981" />

<glyph glyph-name="share" unicode="&#xe84b;" d="M650 200q62 0 106-43t44-107q0-62-44-106t-106-44-106 44-44 106q0 6 1 14t1 12l-260 156q-42-32-92-32-62 0-106 44t-44 106 44 106 106 44q54 0 92-30l260 156q0 4-1 12t-1 12q0 62 44 106t106 44 106-43 44-107q0-62-44-106t-106-44q-52 0-90 32l-262-156q2-8 2-26 0-16-2-24l262-156q36 30 90 30z" horiz-adv-x="800" />

<glyph glyph-name="pencil" unicode="&#xe84c;" d="M718 680q32-32 47-64t15-48l0-16-252-252-290-288-238-52 50 240 290 288 252 252q54 12 126-60z m-494-640l24 24q-2 44-52 94-22 22-45 35t-35 13l-14 2-22-24-18-80q28-16 46-34 24-24 36-48z" horiz-adv-x="780" />

<glyph glyph-name="syrios-bullet-round" unicode="&#xe84d;" d="M500 483c38 0 68-12 94-39 27-26 39-56 39-94s-12-68-39-94c-26-27-56-39-94-39s-68 13-94 39c-27 26-39 57-39 94s12 68 39 94c26 27 57 39 94 39" horiz-adv-x="1000" />

<glyph glyph-name="syrios-bullet-square" unicode="&#xe84e;" d="M622 448c0 12-8 21-19 24-2 0-4 0-5 0h-196c-13 0-24-11-24-24v-196c0-13 11-24 24-24h196c2 0 3 0 5 0 11 2 19 12 19 24v196z" horiz-adv-x="1000" />
</font>
</defs>
</svg>
