<?xml version="1.0" encoding="UTF-8"?>
<svg id="Layer_2" data-name="Layer 2" xmlns="http://www.w3.org/2000/svg" viewBox="0 0 1013.75 706.96">
  <defs>
    <style>
      .cls-1 {
        fill: none;
        stroke-width: 30px;
      }

      .cls-1, .cls-2 {
        stroke: #7899a8;
        stroke-miterlimit: 10;
      }

      .cls-3, .cls-2 {
        fill: #7899a8;
      }
    </style>
  </defs>
  <g id="Layer_1-2" data-name="Layer 1">
    <g>
      <circle class="cls-3" cx="444.12" cy="146" r="145.5"/>
      <path class="cls-3" d="M444.12,1c38.73,0,75.14,15.08,102.53,42.47s42.47,63.8,42.47,102.53-15.08,75.14-42.47,102.53c-27.39,27.39-63.8,42.47-102.53,42.47s-75.14-15.08-102.53-42.47c-27.39-27.39-42.47-63.8-42.47-102.53s15.08-75.14,42.47-102.53S405.38,1,444.12,1m0-1c-80.63,0-146,65.37-146,146s65.37,146,146,146,146-65.37,146-146S524.75,0,444.12,0h0Z"/>
    </g>
    <path class="cls-1" d="M701.12,464c68.24-31.44,151.77-74.05,187.02-92.21,11.4-5.87,23.39-10.49,35.79-13.77h0c31.57-8.36,64.6,9.59,73.65,40.97,.19,.67,.37,1.34,.54,2.01,3.56,14.08-9,34-9,34l-5.32,5.03c-8.41,7.94-17.87,14.7-28.11,20.09l-411.6,216.36c-2.17,.84-4.48,1.77-6.91,2.75-49.04,19.85-104.44,16.38-150.57-9.52l-145.48-81.7c-34-14-51-20-86-2l-111,45"/>
    <path class="cls-1" d="M17.12,356l193.07-42.26c6.71-1.47,13.44-2.82,20.21-3.92,11.37-1.85,23.47-1.57,67.72,11.18,25.56,7.36,61.02,24.32,84.5,38.85,18.91,11.7,40.42,19.45,62.5,22.15l222,27c42.43,31.5,40,56,19,75"/>
    <path class="cls-1" d="M608.12,401l179-84c22.62-10.1,54.99-5.34,69,11,17.72,20.67,19.71,42.66-6,63"/>
    <path class="cls-1" d="M476.12,383c44.14-23.63,154-91,200-103,41.92-10.94,72,32,47,67"/>
    <path class="cls-1" d="M692.12,478c-2,3-21,26-83,33-37.77,4.26-158.28,14.81-216,10"/>
    <path class="cls-2" d="M36.36,354.47c0-8.07-6.81-14.88-14.88-14.88-2.7,0-5.26,.78-7.47,2.1-7.43,.73-13.5,7.23-13.5,14.81,0,8.07,6.81,14.88,14.88,14.88,2.69,0,5.24-.78,7.46-2.1,7.44-.72,13.52-7.23,13.52-14.81Z"/>
    <circle class="cls-2" cx="393.17" cy="521.02" r="14.88"/>
    <path class="cls-2" d="M45.85,615.82c-6.96,0-13,5.12-14.51,11.7-2.88,6.76,.2,16.3,9.28,17.06,1.64,.64,3.4,1,5.23,1,8.04,0,14.88-6.84,14.88-14.88s-6.81-14.88-14.88-14.88Z"/>
  </g>
</svg>