<?xml version="1.0" encoding="UTF-8"?>
<svg id="Layer_2" data-name="Layer 2" xmlns="http://www.w3.org/2000/svg" viewBox="0 0 15.99 25.59">
  <defs>
    <style>
      .cls-1 {
        fill: #7899a8;
      }
    </style>
  </defs>
  <g id="Layer_1-2" data-name="Layer 1">
    <path class="cls-1" d="M8,0c2.22,0,4.11,.78,5.66,2.34s2.34,3.45,2.34,5.69-.66,4.82-1.98,7.74-2.67,5.3-4.03,7.13l-1.98,2.69c-.21-.26-.5-.63-.86-1.12-.36-.49-1-1.44-1.92-2.85-.92-1.41-1.73-2.79-2.43-4.16-.7-1.36-1.34-2.93-1.92-4.7s-.86-3.36-.86-4.77C0,5.78,.78,3.89,2.34,2.34S5.78,0,8,0Zm0,12.41c1.19,0,2.22-.43,3.07-1.28,.85-.85,1.28-1.88,1.28-3.07s-.43-2.21-1.28-3.04c-.85-.83-1.88-1.25-3.07-1.25s-2.21,.42-3.04,1.25c-.83,.83-1.25,1.85-1.25,3.04s.42,2.22,1.25,3.07c.83,.85,1.84,1.28,3.04,1.28Z"/>
  </g>
</svg>