<?xml version="1.0" encoding="UTF-8"?>
<svg id="Layer_2" data-name="Layer 2" xmlns="http://www.w3.org/2000/svg" viewBox="0 0 966 966">
  <defs>
    <style>
      .cls-1, .cls-2 {
        fill: #fff;
      }

      .cls-3 {
        fill: #7899a8;
      }

      .cls-4 {
        stroke-width: 40px;
      }

      .cls-4, .cls-5 {
        fill: none;
        stroke: #fff;
        stroke-miterlimit: 10;
      }

      .cls-5 {
        stroke-width: 25px;
      }

      .cls-2 {
        font-family: MyriadPro-Regular, 'Myriad Pro';
        font-size: 308px;
      }
    </style>
  </defs>
  <g id="Layer_1-2" data-name="Layer 1">
    <g>
      <path class="cls-3" d="M483,965.5c-65.14,0-128.33-12.76-187.81-37.92-57.46-24.3-109.06-59.09-153.37-103.4-44.31-44.31-79.1-95.91-103.4-153.37C13.26,611.33,.5,548.14,.5,483s12.76-128.33,37.92-187.81c24.3-57.46,59.09-109.06,103.4-153.37,44.31-44.31,95.91-79.1,153.37-103.4C354.67,13.26,417.86,.5,483,.5s128.33,12.76,187.81,37.92c57.46,24.3,109.06,59.09,153.37,103.4,44.31,44.31,79.1,95.91,103.4,153.37,25.16,59.48,37.92,122.67,37.92,187.81s-12.76,128.33-37.92,187.81c-24.3,57.46-59.09,109.06-103.4,153.37-44.31,44.31-95.91,79.1-153.37,103.4-59.48,25.16-122.67,37.92-187.81,37.92Z"/>
      <path class="cls-3" d="M483,1c65.07,0,128.19,12.74,187.62,37.88,57.4,24.28,108.94,59.03,153.21,103.3,44.27,44.27,79.02,95.81,103.3,153.21,25.13,59.42,37.88,122.55,37.88,187.62s-12.74,128.19-37.88,187.62c-24.28,57.4-59.03,108.94-103.3,153.21-44.27,44.27-95.81,79.02-153.21,103.3-59.42,25.13-122.55,37.88-187.62,37.88s-128.19-12.74-187.62-37.88c-57.4-24.28-108.94-59.03-153.21-103.3s-79.02-95.81-103.3-153.21C13.74,611.19,1,548.07,1,483s12.74-128.19,37.88-187.62c24.28-57.4,59.03-108.94,103.3-153.21,44.27-44.27,95.81-79.02,153.21-103.3C354.81,13.74,417.93,1,483,1m0-1C216.25,0,0,216.25,0,483s216.25,483,483,483,483-216.25,483-483S749.75,0,483,0h0Z"/>
    </g>
    <path class="cls-4" d="M631.64,318.99l141.1,350.74c1.52,3.79,5.2,6.27,9.28,6.27h46.87c7.16,0,12-7.31,9.2-13.91l-167.58-394.67c-3.49-8.23-15.2-8.09-18.5,.22l-153.06,385.79c-8.96,41.57-14.99,8.45-18.49,.24l-164.98-386.45c-3.5-8.19-15.16-8.07-18.48,.2l-164,408.59"/>
    <polyline class="cls-5" points="547.93 530 716.53 530 741.07 591 523.72 591"/>
    <path class="cls-1" d="M154.25,674.02c-.51-11.29-9.15-20.84-20.84-20.84-10.9,0-21.34,9.58-20.84,20.84,.51,11.29,9.15,20.84,20.84,20.84,10.9,0,21.34-9.58,20.84-20.84Z"/>
    <circle class="cls-5" cx="309.5" cy="598.5" r="82.5"/>
    <text class="cls-2" transform="translate(430.24 477.3)"><tspan x="0" y="0">s</tspan></text>
    <path class="cls-1" d="M510.6,330.47c-7.66,0-7.67,11.91,0,11.91s7.67-11.91,0-11.91Z"/>
    <path class="cls-1" d="M531.68,333.89c-13.02,0-13.05,20.24,0,20.24s13.05-20.24,0-20.24Z"/>
    <path class="cls-1" d="M453.03,452.8c-1.63-2.01-4.12-3.38-7.5-3.38-10.47,0-12.53,13.07-6.17,18.2,1.63,2.01,4.12,3.38,7.5,3.38,10.47,0,12.53-13.07,6.17-18.2Z"/>
  </g>
</svg>