<?xml version="1.0" encoding="UTF-8"?>
<svg id="Layer_2" data-name="Layer 2" xmlns="http://www.w3.org/2000/svg" viewBox="0 0 733.58 503.89">
  <defs>
    <style>
      .cls-1 {
        fill: #7899a8;
      }
    </style>
  </defs>
  <g id="Layer_1-2" data-name="Layer 1">
    <path class="cls-1" d="M660.21,0c20.54,0,37.91,6.1,52.12,18.27,14.15,12.17,21.25,27.06,21.25,44.72V440.89c0,16.81-7.1,31.5-21.25,44.11-14.21,12.58-31.58,18.89-52.12,18.89H73.37c-19.58,0-36.71-6.3-51.34-18.89-14.69-12.61-22.03-27.29-22.03-44.11V63C0,45.34,7.34,30.45,22.03,18.27,36.66,6.1,53.79,0,73.37,0H660.21Zm0,440.89V63H73.37V440.89H660.21ZM315.13,128.5v56.67H131.74v-56.67h183.39Zm0,94.47v56.69H131.74v-56.69h183.39Zm0,94.47v56.69H131.74v-56.69h183.39Z"/>
    <circle class="cls-1" cx="489.08" cy="251.39" r="122.5"/>
  </g>
</svg>