<?xml version="1.0" encoding="UTF-8"?>
<svg id="Layer_2" data-name="Layer 2" xmlns="http://www.w3.org/2000/svg" viewBox="0 0 30 30">
  <defs>
    <style>
      .cls-1 {
        fill: #7899a8;
      }
    </style>
  </defs>
  <g id="Layer_1-2" data-name="Layer 1">
    <path class="cls-1" d="M20.37,14.55c.17,.12,.25,.27,.25,.45s-.08,.33-.25,.45l-7.7,4.79c-.29,.19-.53,.23-.74,.11-.2-.12-.31-.36-.31-.72V10.37c0-.36,.1-.6,.31-.72,.2-.12,.45-.08,.74,.11l7.7,4.79ZM15,2.25c3.55,0,6.56,1.24,9.03,3.72,2.48,2.48,3.72,5.48,3.72,9s-1.24,6.53-3.72,9.03c-2.48,2.5-5.49,3.75-9.03,3.75s-6.56-1.25-9.04-3.75c-2.48-2.5-3.71-5.51-3.71-9.03s1.24-6.52,3.71-9c2.48-2.48,5.49-3.72,9.04-3.72m0-2.25C10.85,0,7.28,1.47,4.37,4.38,1.47,7.28,0,10.84,0,14.96s1.47,7.69,4.36,10.62c2.91,2.93,6.48,4.42,10.64,4.42s7.73-1.49,10.63-4.42c2.9-2.93,4.37-6.5,4.37-10.62s-1.47-7.69-4.38-10.59C22.72,1.47,19.15,0,15,0h0Z"/>
  </g>
</svg>