<svg id="Layer_1" data-name="Layer 1" xmlns="http://www.w3.org/2000/svg" viewBox="0 0 612 190"><defs><style>.cls-1{fill:#78a878;}.cls-2{fill:#183848;}</style></defs><path class="cls-1" d="M612,.65l-.07,4.19Q501.56,5,391.16,4.91c-8.5,0-8.5.18-17,.18s-8.5.13-17,.13-8.5.28-17,.28-8.5-.58-17-.58-8.5.22-17,.22h-17c-8.5,0-8.5-.37-17-.37s-8.5-.24-17-.24l-17,0c-8.5,0-8.5.05-17,.05s-8.5.14-17,.14-8.5.38-17,.38h-119c-8.5,0-8.5.1-17,.1s-8.51.32-17,.32-8.51-.09-17-.09S.15,4.62.15,4.62L0,.27S8.55,0,17.05,0s8.5.62,17,.62S42.54,1,51,1s8.49-.2,17-.2S76.51.28,85,.28,93.49,0,102,0s8.5.17,17,.17,8.49.88,17,.88,8.49-.16,17-.16,8.5-.27,17-.27,8.49-.29,17-.29,8.5,0,17,0,8.5.35,17,.35,8.5.25,17,.25,8.5,0,17,0,8.5-.57,17-.57,8.5.64,17,.64C367.91,1,447,.73,526,.69ZM595,14.89c-8.49.66-8.53-.44-17-.44s-8.51.51-17,.51-8.51.14-17,.14-8.5.1-17,.1-8.5.05-17,.05-8.51-.49-17-.49-8.5-.09-17-.09-8.5.43-17,.43-8.49-.63-17-.63-8.5.72-17,.72-8.5-.17-17-.17-8.5-.16-17-.16-8.5,0-17,0-8.51.16-17,.16-8.5-.14-17-.14-8.5.06-17,.06-8.5-.81-17-.81-8.5,1-17,1-8.49-.65-17-.65-8.5.57-17,.57-8.5.05-17,.05-8.5-.26-17-.26-8.5-.34-17-.34-8.49,0-17,0c-33.92,0-68-.09-101.95-.09-8.49,0-8.49.5-17,.5s-8.49.2-17,.2-8.5-.35-17-.35-8.5-.62-17-.62-17,.27-17,.27l.15,4.34s8.42.85,16.94.85,8.51.09,17,.09,8.51-.32,17-.32,8.5-.11,17-.11,8.51.3,17,.3,8.51,0,17,0,8.5-.64,17-.64,8.5.3,17,.3,8.5.21,17,.21,8.5-.21,17-.21h17c8.5,0,8.5-.37,17-.37s8.5-.14,17-.14,8.51-.05,17-.05,8.5,0,17,0,8.5.23,17,.23,8.5.37,17,.37h17c8.5,0,8.5-.23,17-.23s8.5.59,17,.59c34,0,68-.18,102-.18,8.5,0,8.5-.39,17-.39s8.49-.16,17-.16,8.49.46,17,.46c11.32,0,22.64-.77,34-.77,8.49,0,8.49.3,17,.3s8.49.07,17,.07c11.32,0,22.64.11,34,.11,8.5,0,16.89-.39,16.89-.39L612,14.8A131.92,131.92,0,0,0,595,14.89ZM595,171c-8.49.66-8.53-.45-17-.45s-8.51.52-17,.52-8.5.14-17,.14-8.5.1-17,.1-8.5,0-17,0c-25.66,0-51.34-.39-77-.4-76.34,0-152.68-.29-229-.29-22.66,0-45.31.7-68,.7-8.49,0-8.49-.89-17-.89s-8.5-.17-17-.17-8.5.25-17,.25-8.49.5-17,.5-8.49.2-17,.2-8.5-.35-17-.35-8.5-.63-17-.63-17,.28-17,.28l.15,4.34s8.42.85,16.93.85,8.52.09,17,.09,8.51-.32,17-.32,8.5-.11,17-.11,8.51.3,17,.3c17,0,34-.31,51-.31,8.51,0,8.51.22,17,.22s8.5-.21,17-.21h17c8.5,0,8.5-.38,17-.38s8.5-.14,17-.14,8.51,0,17,0l17,0c8.5,0,8.5.23,17,.23s8.5.37,17,.37h17c8.5,0,8.5-.23,17-.23s8.5.59,17,.59,8.5-.28,17-.28,8.49-.14,17-.14,8.5-.18,17-.18h17c8.5,0,8.5.44,17,.44s8.5,0,17,0,8.5-.39,17-.39,8.49-.16,17-.16h68c8.5,0,8.5.07,17,.07s8.49.47,17,.47,8.5-.36,17-.36,16.89-.39,16.89-.39l.07-3.92A131.92,131.92,0,0,0,595,171Zm0,14.16c-8.49.67-8.53-.44-17-.44s-8.51.51-17,.51-8.51.15-17,.15-8.5.09-17,.09-8.5.05-17,.05-8.51-.49-17-.49-8.5-.09-17-.09-8.5.43-17,.43-8.49-.63-17-.63-8.5.72-17,.72-8.5-.16-17-.16-8.5-.17-17-.17-8.5,0-17,0-8.51.16-17,.16-8.5-.14-17-.14-8.5.07-17,.07-8.5-.81-17-.81-8.5,1-17,1-8.49-.64-17-.64-8.5.56-17,.56-8.5.05-17,.05-8.5-.25-17-.25-8.5-.35-17-.35-8.49,0-17,0-8.5.29-17,.29-8.5.27-17,.27-8.49.16-17,.16-8.5-.88-17-.88-8.5-.17-17-.17-8.49.25-17,.25-8.49.49-17,.49-8.49.2-17,.2-8.5-.35-17-.35-8.5-.62-17-.62-17,.28-17,.28l.15,4.34s8.42.84,16.94.84,8.51.09,17,.09,8.51-.32,17-.32,8.5-.1,17-.1h68c8.5,0,8.5.21,17,.21s8.5-.21,17-.21h17c8.5,0,8.5-.38,17-.38s8.5-.14,17-.14,8.51-.05,17-.05l17,0c8.5,0,8.5.23,17,.23s8.5.37,17,.37h17c8.5,0,8.5-.23,17-.23s8.5.59,17,.59,8.5-.28,17-.28,8.49-.13,17-.13,8.5-.19,17-.19h17c8.5,0,8.5.44,17,.44s8.5,0,17,0,8.5-.39,17-.39,8.49-.16,17-.16,8.49.46,17,.46,8.5-.05,17-.05,8.49-.71,17-.71,8.49.3,17,.3,8.49.06,17,.06,8.49.47,17,.47,8.5-.36,17-.36,16.89-.38,16.89-.38l.07-3.93A131.92,131.92,0,0,0,595,185.17ZM101.85,89.39A6.37,6.37,0,0,0,97,91.23a6.84,6.84,0,0,0-1.76,4.93,6.35,6.35,0,0,0,1.66,4.74,6.46,6.46,0,0,0,4.77,1.65,6.37,6.37,0,0,0,4.86-1.84,6.86,6.86,0,0,0,1.76-4.94,6.48,6.48,0,0,0-1.66-4.64A6.26,6.26,0,0,0,101.85,89.39Zm101.68,0a6.35,6.35,0,0,0-4.86,1.84,6.84,6.84,0,0,0-1.76,4.93,6.35,6.35,0,0,0,1.66,4.74,6.46,6.46,0,0,0,4.77,1.65,6.37,6.37,0,0,0,4.86-1.84A6.86,6.86,0,0,0,210,95.77a6.48,6.48,0,0,0-1.66-4.64A6.26,6.26,0,0,0,203.53,89.39Zm111.49,0a6.37,6.37,0,0,0-4.86,1.84,6.84,6.84,0,0,0-1.76,4.93,6.35,6.35,0,0,0,1.66,4.74,7.53,7.53,0,0,0,9.64-.19,6.9,6.9,0,0,0,1.75-4.94,6.48,6.48,0,0,0-1.66-4.64A6.26,6.26,0,0,0,315,89.39Zm64.65,0a6.38,6.38,0,0,0-4.86,1.84,6.83,6.83,0,0,0-1.75,4.93,6.38,6.38,0,0,0,1.65,4.74,7.53,7.53,0,0,0,9.64-.19,6.86,6.86,0,0,0,1.75-4.94,6.43,6.43,0,0,0-1.66-4.64A6.26,6.26,0,0,0,379.67,89.39Zm134.62,0a6.37,6.37,0,0,0-4.86,1.84,6.84,6.84,0,0,0-1.76,4.93,6.35,6.35,0,0,0,1.66,4.74,7.53,7.53,0,0,0,9.64-.19,6.9,6.9,0,0,0,1.75-4.94,6.48,6.48,0,0,0-1.66-4.64A6.26,6.26,0,0,0,514.29,89.39Z"/><path class="cls-2" d="M76.27,50.88l-1.55,9.29L73,60.55Q63.23,54,53.5,54T38,59.3q-5.75,5.33-5.74,11.9a12.19,12.19,0,0,0,5.15,10.25q5.16,3.89,15.68,8.32,8.76,4.07,13.82,7.07a30.12,30.12,0,0,1,8.76,7.93,19.65,19.65,0,0,1,3.7,12.1,23.71,23.71,0,0,1-4,13.25A28.22,28.22,0,0,1,64,139.9a38.08,38.08,0,0,1-17.13,3.67,59.87,59.87,0,0,1-13.63-1.64A48.58,48.58,0,0,1,20.4,137l1-9.87,1.37-.58a34,34,0,0,0,12,7.07A39.79,39.79,0,0,0,47.85,136q9.74,0,15.87-5.33t6.13-12.48a12.85,12.85,0,0,0-5.16-10.74q-5.16-4-16.06-9-8.37-3.87-13.53-6.87a28.88,28.88,0,0,1-8.76-7.83A19.17,19.17,0,0,1,22.74,72a22.36,22.36,0,0,1,4-13,27.34,27.34,0,0,1,11.19-9.2,38.59,38.59,0,0,1,16.55-3.38A55.35,55.35,0,0,1,76.27,50.88ZM156,114.55l.2,28.25h-9.54l.39-28.25-.2-6.58L114.31,47H125l2,4.84L151.3,96.93h1l26.48-44.7L180.89,47H191.4l-35.23,61Zm142.58,25.93v1.35A32.11,32.11,0,0,1,290,144l-1.75-1q-14.42-19.35-25.31-37.15l-19.86.19v7l.2,29.8h-9.54l.39-29L233.73,47l28.42-.2q14.79,0,22.78,7.07t8,20a29.64,29.64,0,0,1-5.65,18q-5.64,7.75-16.16,11.81A451.6,451.6,0,0,0,298.55,140.48ZM243.07,97.9l20.25.39q9.74-2.52,14.7-8.52t5-15.09q0-19-22.39-20.13l-17.13.39ZM351.64,113l.2,29.8H342.3l.39-29L342.3,47H352ZM479.93,58.33Q491,70.61,491,93.07q0,24.38-11.78,37.54t-33.38,13.16q-20.64,0-31.83-12.58t-11.2-35.61q0-23.81,11.78-36.67T448.2,46Q468.84,46,479.93,58.33ZM412.77,94.42q0,41.22,33.49,41.22,17.12,0,26.08-10.26t9-30.77q0-40.24-33.88-40.25Q412.77,54.36,412.77,94.42ZM588.49,50.88l-1.56,9.29-1.75.38Q575.43,54,565.71,54T550.23,59.3q-5.75,5.33-5.74,11.9a12.2,12.2,0,0,0,5.16,10.25q5.15,3.89,15.67,8.32,8.76,4.07,13.82,7.07a30.12,30.12,0,0,1,8.76,7.93,19.59,19.59,0,0,1,3.7,12.1,23.71,23.71,0,0,1-4,13.25,28.22,28.22,0,0,1-11.39,9.78,38,38,0,0,1-17.13,3.67,59.94,59.94,0,0,1-13.63-1.64A48.71,48.71,0,0,1,532.61,137l1-9.87,1.36-.58a34,34,0,0,0,12,7.07A39.88,39.88,0,0,0,560.06,136q9.74,0,15.87-5.33t6.13-12.48a12.85,12.85,0,0,0-5.16-10.74q-5.16-4-16.06-9-8.37-3.87-13.53-6.87a28.88,28.88,0,0,1-8.76-7.83A19.23,19.23,0,0,1,535,72a22.36,22.36,0,0,1,4-13,27.34,27.34,0,0,1,11.19-9.2,38.59,38.59,0,0,1,16.55-3.38A55.36,55.36,0,0,1,588.49,50.88Z"/></svg>